<svg width="216" height="216" version="1.1" xmlns="http://www.w3.org/2000/svg" desc="Created with imagetracer.js version 1.2.6" ><path fill="rgb(101,114,81)" stroke="rgb(101,114,81)" stroke-width="1" opacity="0.9803921568627451" d="M 100.5 0 L 103 0.5 L 100.5 1 L 100.5 0 Z " /><path fill="rgb(101,114,81)" stroke="rgb(101,114,81)" stroke-width="1" opacity="0.9803921568627451" d="M 112.5 0 L 116 0.5 L 112.5 1 L 112.5 0 Z " /><path fill="rgb(101,114,81)" stroke="rgb(101,114,81)" stroke-width="1" opacity="0.9803921568627451" d="M 121.5 3 L 124 3.5 L 121.5 4 L 121.5 3 Z " /><path fill="rgb(101,114,81)" stroke="rgb(101,114,81)" stroke-width="1" opacity="0.9803921568627451" d="M 70.5 12 L 73 12.5 L 70.5 13 L 70.5 12 Z " /><path fill="rgb(101,114,81)" stroke="rgb(101,114,81)" stroke-width="1" opacity="0.9803921568627451" d="M 143.5 12 L 147 13.5 L 145.5 13 Q 142.5 13.5 143.5 12 Z " /><path fill="rgb(101,114,81)" stroke="rgb(101,114,81)" stroke-width="1" opacity="0.9803921568627451" d="M 151.5 15 L 154 16.5 L 152.5 17 L 151.5 15 Z " /><path fill="rgb(101,114,81)" stroke="rgb(101,114,81)" stroke-width="1" opacity="0.9803921568627451" d="M 62.5 16 L 61.5 18 L 62.5 16 Z " /><path fill="rgb(101,114,81)" stroke="rgb(101,114,81)" stroke-width="1" opacity="0.9803921568627451" d="M 162.5 20 L 167 21.5 L 164.5 22 L 162.5 20 Z " /><path fill="rgb(101,114,81)" stroke="rgb(101,114,81)" stroke-width="1" opacity="0.9803921568627451" d="M 44.5 23 L 43.5 25 L 44.5 23 Z " /><path fill="rgb(101,114,81)" stroke="rgb(101,114,81)" stroke-width="1" opacity="0.9803921568627451" d="M 40.5 25 L 42 25.5 L 39.5 27 L 40.5 25 Z " /><path fill="rgb(101,114,81)" stroke="rgb(101,114,81)" stroke-width="1" opacity="0.9803921568627451" d="M 174.5 25 L 178 26.5 L 176.5 27 L 174.5 25 Z " /><path fill="rgb(101,114,81)" stroke="rgb(101,114,81)" stroke-width="1" opacity="0.9803921568627451" d="M 182.5 29 L 186 33.5 L 182 30.5 L 182.5 29 Z " /><path fill="rgb(101,114,81)" stroke="rgb(101,114,81)" stroke-width="1" opacity="0.9803921568627451" d="M 33.5 30 L 30.5 34 L 33.5 30 Z " /><path fill="rgb(101,114,81)" stroke="rgb(101,114,81)" stroke-width="1" opacity="0.9803921568627451" d="M 189.5 37 L 191 41.5 L 190 41.5 L 189.5 37 Z " /><path fill="rgb(101,114,81)" stroke="rgb(101,114,81)" stroke-width="1" opacity="0.9803921568627451" d="M 21.5 49 L 22 51.5 L 20 52.5 L 21.5 49 Z " /><path fill="rgb(101,114,81)" stroke="rgb(101,114,81)" stroke-width="1" opacity="0.9803921568627451" d="M 194.5 49 L 196 53.5 L 195 53.5 L 194.5 49 Z " /><path fill="rgb(101,114,81)" stroke="rgb(101,114,81)" stroke-width="1" opacity="0.9803921568627451" d="M 13.5 68 L 14 69.5 L 12.5 73 L 12 70.5 L 13.5 68 Z " /><path fill="rgb(101,114,81)" stroke="rgb(101,114,81)" stroke-width="1" opacity="0.9803921568627451" d="M 202.5 68 L 204 72.5 L 203 72.5 L 202.5 68 Z " /><path fill="rgb(101,114,81)" stroke="rgb(101,114,81)" stroke-width="1" opacity="0.9803921568627451" d="M 3.5 92 L 4 94.5 L 3 94.5 L 3.5 92 Z " /><path fill="rgb(101,114,81)" stroke="rgb(101,114,81)" stroke-width="1" opacity="0.9803921568627451" d="M 212.5 92 L 213 94.5 L 212 94.5 L 212.5 92 Z " /><path fill="rgb(101,114,81)" stroke="rgb(101,114,81)" stroke-width="1" opacity="0.9803921568627451" d="M 1.5 98 L 2 99.5 L 0.5 104 L 0 100.5 L 1.5 98 Z " /><path fill="rgb(101,114,81)" stroke="rgb(101,114,81)" stroke-width="1" opacity="0.9803921568627451" d="M 215.5 100 L 216 103.5 L 215 103.5 L 215.5 100 Z " /><path fill="rgb(101,114,81)" stroke="rgb(101,114,81)" stroke-width="1" opacity="0.9803921568627451" d="M 0.5 113 L 1 115.5 L 0 115.5 L 0.5 113 Z " /><path fill="rgb(101,114,81)" stroke="rgb(101,114,81)" stroke-width="1" opacity="0.9803921568627451" d="M 215.5 113 L 216 115.5 L 215 115.5 L 215.5 113 Z " /><path fill="rgb(101,114,81)" stroke="rgb(101,114,81)" stroke-width="1" opacity="0.9803921568627451" d="M 212.5 121 L 213 123.5 L 212 123.5 L 212.5 121 Z " /><path fill="rgb(101,114,81)" stroke="rgb(101,114,81)" stroke-width="1" opacity="0.9803921568627451" d="M 12.5 143 L 13 145.5 L 12 145.5 L 12.5 143 Z " /><path fill="rgb(101,114,81)" stroke="rgb(101,114,81)" stroke-width="1" opacity="0.9803921568627451" d="M 200.5 151 L 200 152.5 L 199.5 154 L 199 152.5 L 200.5 151 Z " /><path fill="rgb(101,114,81)" stroke="rgb(101,114,81)" stroke-width="1" opacity="0.9803921568627451" d="M 16.5 153 L 17.5 155 L 16.5 153 Z " /><path fill="rgb(101,114,81)" stroke="rgb(101,114,81)" stroke-width="1" opacity="0.9803921568627451" d="M 190.5 174 L 191 175.5 L 189 176.5 L 190.5 174 Z " /><path fill="rgb(101,114,81)" stroke="rgb(101,114,81)" stroke-width="1" opacity="0.9803921568627451" d="M 185.5 182 L 182.5 186 L 185.5 182 Z " /><path fill="rgb(101,114,81)" stroke="rgb(101,114,81)" stroke-width="1" opacity="0.9803921568627451" d="M 164.5 194 L 167 194.5 L 162.5 196 L 162.5 195 L 164.5 194 Z " /><path fill="rgb(101,114,81)" stroke="rgb(101,114,81)" stroke-width="1" opacity="0.9803921568627451" d="M 154.5 198 L 153.5 200 L 152 199.5 L 154.5 198 Z " /><path fill="rgb(101,114,81)" stroke="rgb(101,114,81)" stroke-width="1" opacity="0.9803921568627451" d="M 146.5 202 L 148 202.5 L 143.5 204 L 143.5 203 L 146.5 202 Z " /><path fill="rgb(101,114,81)" stroke="rgb(101,114,81)" stroke-width="1" opacity="0.9803921568627451" d="M 70.5 203 L 73 203.5 L 70.5 204 L 70.5 203 Z " /><path fill="rgb(101,114,81)" stroke="rgb(101,114,81)" stroke-width="1" opacity="0.9803921568627451" d="M 92.5 212 L 95 212.5 L 92.5 213 L 92.5 212 Z " /><path fill="rgb(101,114,81)" stroke="rgb(101,114,81)" stroke-width="1" opacity="0.9803921568627451" d="M 121.5 212 L 124 212.5 L 121.5 213 L 121.5 212 Z " /><path fill="rgb(101,114,81)" stroke="rgb(101,114,81)" stroke-width="1" opacity="0.9803921568627451" d="M 112.5 215 L 116 215.5 L 112.5 216 L 112.5 215 Z " /><path fill="rgb(103,116,81)" stroke="rgb(103,116,81)" stroke-width="1" opacity="0.996078431372549" d="M 93.5 3 L 92.5 5 L 89.5 6 L 89.5 5 L 93.5 3 Z " /><path fill="rgb(103,116,81)" stroke="rgb(103,116,81)" stroke-width="1" opacity="0.996078431372549" d="M 85.5 7 L 84.5 9 L 81 8.5 L 85.5 7 Z " /><path fill="rgb(103,116,81)" stroke="rgb(103,116,81)" stroke-width="1" opacity="0.996078431372549" d="M 131.5 8 L 134 8.5 L 131.5 9 L 131.5 8 Z " /><path fill="rgb(103,116,81)" stroke="rgb(103,116,81)" stroke-width="1" opacity="0.996078431372549" d="M 75.5 11 L 74.5 13 L 70.5 14 L 70.5 13 L 75.5 11 Z " /><path fill="rgb(103,116,81)" stroke="rgb(103,116,81)" stroke-width="1" opacity="0.996078431372549" d="M 141.5 12 L 144 13.5 L 142.5 13 L 141.5 12 Z " /><path fill="rgb(103,116,81)" stroke="rgb(103,116,81)" stroke-width="1" opacity="0.996078431372549" d="M 63.5 16 L 65 16.5 L 62.5 18 L 63.5 16 Z " /><path fill="rgb(103,116,81)" stroke="rgb(103,116,81)" stroke-width="1" opacity="0.996078431372549" d="M 153.5 17 L 156 17.5 L 153.5 18 L 153.5 17 Z " /><path fill="rgb(103,116,81)" stroke="rgb(103,116,81)" stroke-width="1" opacity="0.996078431372549" d="M 51.5 21 L 53 21.5 L 50.5 23 L 51.5 21 Z " /><path fill="rgb(103,116,81)" stroke="rgb(103,116,81)" stroke-width="1" opacity="0.996078431372549" d="M 44.5 24 L 43.5 26 L 42 25.5 L 44.5 24 Z " /><path fill="rgb(103,116,81)" stroke="rgb(103,116,81)" stroke-width="1" opacity="0.996078431372549" d="M 171.5 24 L 174 25.5 L 172.5 26 L 171.5 24 Z " /><path fill="rgb(103,116,81)" stroke="rgb(103,116,81)" stroke-width="1" opacity="0.996078431372549" d="M 34.5 29 L 35 30.5 L 33 31.5 L 34.5 29 Z " /><path fill="rgb(103,116,81)" stroke="rgb(103,116,81)" stroke-width="1" opacity="0.996078431372549" d="M 181.5 30 L 184.5 34 L 181.5 30 Z " /><path fill="rgb(103,116,81)" stroke="rgb(103,116,81)" stroke-width="1" opacity="0.996078431372549" d="M 22.5 48 L 23 50.5 L 22 50.5 L 22.5 48 Z " /><path fill="rgb(103,116,81)" stroke="rgb(103,116,81)" stroke-width="1" opacity="0.996078431372549" d="M 193.5 48 L 194 50.5 L 193 50.5 L 193.5 48 Z " /><path fill="rgb(103,116,81)" stroke="rgb(103,116,81)" stroke-width="1" opacity="0.996078431372549" d="M 17.5 60 L 18 62.5 L 17 62.5 L 17.5 60 Z " /><path fill="rgb(103,116,81)" stroke="rgb(103,116,81)" stroke-width="1" opacity="0.996078431372549" d="M 198.5 60 L 199 62.5 L 198 62.5 L 198.5 60 Z " /><path fill="rgb(103,116,81)" stroke="rgb(103,116,81)" stroke-width="1" opacity="0.996078431372549" d="M 202.5 72 L 203.5 74 L 202.5 72 Z " /><path fill="rgb(103,116,81)" stroke="rgb(103,116,81)" stroke-width="1" opacity="0.996078431372549" d="M 5.5 89 L 6 90.5 L 4.5 93 L 4 91.5 L 5.5 89 Z " /><path fill="rgb(103,116,81)" stroke="rgb(103,116,81)" stroke-width="1" opacity="0.996078431372549" d="M 210.5 89 L 212 92.5 L 211 92.5 L 210.5 89 Z " /><path fill="rgb(103,116,81)" stroke="rgb(103,116,81)" stroke-width="1" opacity="0.996078431372549" d="M 0.5 110 L 1 112.5 L 0 112.5 L 0.5 110 Z " /><path fill="rgb(103,116,81)" stroke="rgb(103,116,81)" stroke-width="1" opacity="0.996078431372549" d="M 3.5 122 L 6 125.5 L 4 124.5 L 3.5 122 Z " /><path fill="rgb(103,116,81)" stroke="rgb(103,116,81)" stroke-width="1" opacity="0.996078431372549" d="M 211.5 123 L 212 124.5 L 210 125.5 L 211.5 123 Z " /><path fill="rgb(103,116,81)" stroke="rgb(103,116,81)" stroke-width="1" opacity="0.996078431372549" d="M 8.5 131 L 10 135.5 L 8 134.5 L 8.5 131 Z " /><path fill="rgb(103,116,81)" stroke="rgb(103,116,81)" stroke-width="1" opacity="0.996078431372549" d="M 207.5 131 L 208 133.5 L 207 133.5 L 207.5 131 Z " /><path fill="rgb(103,116,81)" stroke="rgb(103,116,81)" stroke-width="1" opacity="0.996078431372549" d="M 12.5 141 L 14 143.5 L 12 142.5 L 12.5 141 Z " /><path fill="rgb(103,116,81)" stroke="rgb(103,116,81)" stroke-width="1" opacity="0.996078431372549" d="M 203.5 142 L 202.5 144 L 203.5 142 Z " /><path fill="rgb(103,116,81)" stroke="rgb(103,116,81)" stroke-width="1" opacity="0.996078431372549" d="M 202 145 L 204 145.5 L 202 146.5 L 202 145 Z " /><path fill="rgb(103,116,81)" stroke="rgb(103,116,81)" stroke-width="1" opacity="0.996078431372549" d="M 16.5 151 L 18 153.5 L 16 152.5 L 16.5 151 Z " /><path fill="rgb(103,116,81)" stroke="rgb(103,116,81)" stroke-width="1" opacity="0.996078431372549" d="M 198.5 153 L 199 155.5 L 198 155.5 L 198.5 153 Z " /><path fill="rgb(103,116,81)" stroke="rgb(103,116,81)" stroke-width="1" opacity="0.996078431372549" d="M 20.5 161 L 23 165.5 L 21 164.5 L 20.5 161 Z " /><path fill="rgb(103,116,81)" stroke="rgb(103,116,81)" stroke-width="1" opacity="0.996078431372549" d="M 194.5 163 L 195 164.5 L 193.5 167 L 193 165.5 L 194.5 163 Z " /><path fill="rgb(103,116,81)" stroke="rgb(103,116,81)" stroke-width="1" opacity="0.996078431372549" d="M 25.5 172 L 27 176.5 L 26 176.5 L 25.5 172 Z " /><path fill="rgb(103,116,81)" stroke="rgb(103,116,81)" stroke-width="1" opacity="0.996078431372549" d="M 30.5 181 L 34 185.5 L 30 182.5 L 30.5 181 Z " /><path fill="rgb(103,116,81)" stroke="rgb(103,116,81)" stroke-width="1" opacity="0.996078431372549" d="M 185.5 181 L 181.5 186 L 185.5 181 Z " /><path fill="rgb(103,116,81)" stroke="rgb(103,116,81)" stroke-width="1" opacity="0.996078431372549" d="M 38.5 189 L 43 190.5 L 41.5 191 L 38.5 190 L 38.5 189 Z " /><path fill="rgb(103,116,81)" stroke="rgb(103,116,81)" stroke-width="1" opacity="0.996078431372549" d="M 175.5 189 L 178 189.5 L 175.5 190 L 175.5 189 Z " /><path fill="rgb(103,116,81)" stroke="rgb(103,116,81)" stroke-width="1" opacity="0.996078431372549" d="M 48.5 193 L 54 195.5 L 52.5 195 L 48.5 194 L 48.5 193 Z " /><path fill="rgb(103,116,81)" stroke="rgb(103,116,81)" stroke-width="1" opacity="0.996078431372549" d="M 58.5 198 Q 63 197 64 199.5 L 62.5 199 Q 57.5 200 58.5 198 Z " /><path fill="rgb(103,116,81)" stroke="rgb(103,116,81)" stroke-width="1" opacity="0.996078431372549" d="M 72.5 202 L 73.5 204 L 72.5 202 Z " /><path fill="rgb(103,116,81)" stroke="rgb(103,116,81)" stroke-width="1" opacity="0.996078431372549" d="M 143.5 202 L 141.5 205 L 143.5 202 Z " /><path fill="rgb(103,116,81)" stroke="rgb(103,116,81)" stroke-width="1" opacity="0.996078431372549" d="M 79.5 206 L 84 207.5 L 81.5 208 L 79.5 206 Z " /><path fill="rgb(103,116,81)" stroke="rgb(103,116,81)" stroke-width="1" opacity="0.996078431372549" d="M 89.5 210 L 93 211.5 L 91.5 212 L 89.5 210 Z " /><path fill="rgb(103,116,81)" stroke="rgb(103,116,81)" stroke-width="1" opacity="0.996078431372549" d="M 125.5 210 L 124.5 212 L 123 211.5 L 125.5 210 Z " /><path fill="rgb(103,116,81)" stroke="rgb(103,116,81)" stroke-width="1" opacity="0.996078431372549" d="M 99.5 214 L 102 214.5 L 99.5 215 L 99.5 214 Z " /><path fill="rgb(104,116,81)" stroke="rgb(104,116,81)" stroke-width="1" opacity="1" d="M 104.5 0 L 105.5 1 L 116.5 1 L 118.5 3 L 131 7 Q 129.7 10.3 134.5 9 L 137.5 10 L 143.5 14 L 145.5 14 L 148.5 14 L 153.5 18 Q 158.9 17.4 161 19 Q 159.9 21.7 162.5 21 L 165.5 23 L 167.5 22 L 171 23 L 172.5 26 Q 179 26 182 29.5 L 181 30.5 L 184.5 34 Q 187.8 32.9 187 35.5 L 189 37.5 L 190 42.5 L 193 45.5 L 193 50.5 L 198 57.5 L 198 62.5 Q 202.2 65.3 203 71.5 Q 200.5 73 204 74.5 L 215 101.5 L 215 114.5 L 214 117.5 L 210 125.5 Q 212.5 127 209 128.5 Q 210 132.3 207 131 L 207 134.5 Q 206.2 140.7 202 143.5 L 202 145.5 L 202 148.5 L 198 153.5 L 198 158.5 L 193 166.5 L 193 168.5 L 191.5 172 Q 188.9 171.2 190 174.5 L 186.5 182 L 185.5 181 L 181 185.5 L 181.5 187 L 178.5 189 L 172 190 L 170.5 193 L 167.5 194 L 165.5 193 L 160.5 197 L 153.5 198 Q 150.7 202.2 144.5 203 Q 143 200.5 141.5 204 Q 138.5 207 132.5 207 L 126.5 211 L 124.5 211 L 116.5 215 L 114.5 215 L 102.5 215 L 89.5 210 Q 88 212.5 86.5 209 Q 83.5 206 77.5 206 L 72.5 202 L 70.5 202 L 67.5 202 L 62.5 198 L 57.5 198 Q 54.7 193.8 48.5 193 L 46.5 193 L 34 186.5 Q 34.5 181.5 30.5 181 Q 29.3 183.3 28 180.5 L 26 177.5 L 27 175.5 L 26 172 L 23 170.5 L 22 166.5 L 22 164.5 L 21 161 Q 18.3 162.1 19 159.5 Q 16.8 158.3 18 153.5 Q 13.8 150.7 13 144.5 L 13 142.5 L 11 139.5 L 9 136.5 L 9 134.5 L 9 131 Q 6.3 132.1 7 129.5 L 5 126.5 L 5 124.5 L 1 116.5 Q 2.7 108.3 0 104.5 L 12 73 L 14 72.5 L 14 70.5 L 15 68.5 Q 12.5 67 16 65.5 Q 19.3 62.3 19 55.5 L 23 50.5 L 23 46.5 L 27 40.5 L 27 37.5 L 29 34 L 32 34 Q 30.9 31.3 33.5 32 L 37.5 27 Q 43 27.5 45 24.5 Q 44.2 21.9 47.5 23 L 49.5 22 L 51.5 22 L 55 21 Q 53.9 18.3 56.5 19 Q 57.7 16.8 62.5 18 L 69.5 13 L 72.5 14 L 79.5 9 L 84.5 9 L 88.5 6 L 104.5 0 Z " /><path fill="rgb(0,0,0)" stroke="rgb(0,0,0)" stroke-width="1" opacity="0" d="M 0 0 L 100 0.5 L 96.5 3 L 92.5 3 L 87 5.5 L 87.5 7 L 80.5 8 Q 77.5 12 70.5 12 Q 59.4 19.4 44.5 23 L 35.5 29 L 34 28.5 L 27.5 37 Q 24.9 36.2 26 39.5 L 20 52.5 Q 22.5 54 19 55.5 Q 15.7 58.7 16 65.5 L 12 70.5 L 12 75.5 L 8 80.5 L 7 88 Q 4.3 86.9 5 89.5 Q 1.8 92 3 98 Q 0.3 96.9 1 99.5 L 0 99.5 L 0 0 Z " /><path fill="rgb(0,0,0)" stroke="rgb(0,0,0)" stroke-width="1" opacity="0" d="M 105.5 0 L 109 0.5 L 105.5 1 L 105.5 0 Z " /><path fill="rgb(0,0,0)" stroke="rgb(0,0,0)" stroke-width="1" opacity="0" d="M 116.5 0 L 216 0 L 216 99.5 L 215 99.5 L 215 98 L 213 97.5 L 213 92.5 L 211 88 Q 208 89.3 209 85.5 L 208 80.5 L 204 75.5 L 204 70.5 L 200 65.5 L 199 58.5 L 193 47.5 L 190 37 L 187 35.5 L 183 29 L 180.5 29 L 175.5 25 L 151.5 15 Q 150 17.5 148.5 14 Q 145.5 11 139.5 11 L 135.5 8 L 128.5 7 L 123.5 3 L 118.5 3 L 116.5 0 Z " /><path fill="rgb(0,0,0)" stroke="rgb(0,0,0)" stroke-width="1" opacity="0" d="M 215.5 105 L 216 109.5 L 215 109.5 L 215.5 105 Z " /><path fill="rgb(0,0,0)" stroke="rgb(0,0,0)" stroke-width="1" opacity="0" d="M 0.5 106 L 1 109.5 L 0 109.5 L 0.5 106 Z " /><path fill="rgb(0,0,0)" stroke="rgb(0,0,0)" stroke-width="1" opacity="0" d="M 0.5 116 Q 3.8 117.7 3 123.5 L 7 129.5 L 8 135.5 L 11 139.5 L 12 145.5 L 16 150.5 L 16 152.5 Q 21.2 169.4 29 183 L 37 188 Q 35.8 191 39.5 190 L 49.5 195 L 54.5 196 L 58.5 199 L 65.5 200 L 70.5 204 L 74.5 204 L 80.5 208 L 84.5 208 L 92.5 213 Q 98.7 212.3 101 215.5 L 0 216 L 0.5 116 Z " /><path fill="rgb(0,0,0)" stroke="rgb(0,0,0)" stroke-width="1" opacity="0" d="M 215.5 116 L 216 216 L 116 215.5 L 118.5 213 L 125.5 212 L 128.5 209 L 135.5 208 L 140.5 204 L 142.5 204 Q 149.2 204.7 150.5 200 L 158 199 Q 156.8 196 160.5 197 L 177.5 190 L 187 181.5 L 191 175.5 L 201 151.5 Q 198.5 150 202 148.5 L 205 141.5 Q 202.5 140 206 138.5 Q 209.3 135.3 209 128.5 L 212 125.5 L 213 119.5 L 215.5 116 Z " /><path fill="rgb(0,0,0)" stroke="rgb(0,0,0)" stroke-width="1" opacity="0" d="M 106.5 215 L 110 215.5 L 106.5 216 L 106.5 215 Z " /></svg>