<svg width="400" height="100" version="1.1" xmlns="http://www.w3.org/2000/svg" desc="Created with imagetracer.js version 1.2.6" ><path fill="rgb(0,0,0)" stroke="rgb(0,0,0)" stroke-width="1" opacity="0" d="M 0 0 L 399.5 0 L 400 0.5 L 400 100 L 0.5 100 L 0 99.5 L 0 0 Z M 13 27 L 9 31 L 4 44 Q 2 57 7 64 Q 12 72 24 73 Q 26 73 26 69 L 24 66 L 19 65 Q 13 62 11 55 L 11 45 L 15 36 L 20 42 Q 25 43 27 40 L 35 40 Q 36 43 42 42 L 49 33 L 49 29 Q 48 26 45 27 L 39 34 L 36 33 Q 27 32 23 34 L 19 30 Q 18 26 13 27 Z M 72 29 L 63 31 L 56 35 L 50 46 L 47 58 L 44 64 Q 42 67 35 66 L 36 64 Q 37 59 34 58 Q 27 57 25 59 L 26 68 L 33 73 Q 43 75 48 70 L 54 60 Q 55 48 61 41 L 67 37 Q 77 35 82 39 L 85 45 L 91 50 L 98 54 L 97 56 L 99 61 L 94 65 L 84 66 L 81 69 Q 80 73 84 73 L 92 73 L 101 69 L 108 60 L 108 53 Q 103 46 95 44 L 90 38 L 82 31 L 72 29 Z M 67 38 L 64 41 Q 64 54 71 60 L 70 65 L 68 66 Q 60 67 58 63 Q 54 62 53 65 L 54 70 L 60 73 Q 70 75 75 70 L 78 65 L 78 58 L 72 48 L 71 40 Q 70 37 67 38 Z M 232 39 L 231 46 L 229 45 L 221 46 Q 216 49 215 55 L 216 62 L 222 65 L 228 63 Q 229 65 234 64 L 235 63 L 235 58 L 239 40 L 232 39 Z M 275 39 L 271 62 L 271 64 L 278 64 L 279 54 L 283 50 L 286 53 L 284 61 Q 282 67 290 64 L 291 63 Q 290 58 292 57 L 292 48 Q 290 43 283 45 L 281 46 L 282 41 L 282 39 L 275 39 Z M 118 40 L 116 41 L 112 46 L 113 52 L 121 56 Q 123 55 122 59 Q 117 61 118 57 L 111 57 L 111 61 L 118 65 Q 124 66 127 63 Q 130 61 129 55 Q 126 50 121 49 L 119 47 L 122 45 L 123 48 L 130 48 L 130 44 Q 127 38 118 40 Z M 257 40 L 253 42 L 246 51 Q 245 57 247 61 L 250 63 L 256 65 L 264 63 L 269 56 Q 261 54 258 59 L 253 57 L 254 49 L 258 46 L 262 47 L 263 47 L 264 49 L 270 49 L 269 44 Q 266 39 257 40 Z M 80 43 L 77 46 L 78 52 L 82 54 L 85 52 L 85 48 L 83 44 L 80 43 Z M 139 45 L 137 46 Q 132 49 131 55 L 132 62 L 138 65 Q 144 66 147 63 L 150 57 L 144 57 Q 142 60 138 59 L 139 56 L 151 56 L 152 62 L 158 65 L 162 65 L 168 62 L 170 57 Q 163 55 162 59 L 158 58 Q 157 51 162 50 L 164 52 L 165 53 L 171 53 L 170 48 L 167 45 Q 160 44 157 46 Q 152 48 152 54 L 150 48 Q 147 43 139 45 Z M 180 45 L 176 47 L 171 55 L 172 61 L 179 65 L 187 63 L 192 56 L 191 49 Q 189 43 180 45 Z M 196 45 L 193 62 L 193 64 L 200 64 L 201 54 L 205 50 L 208 53 L 206 61 Q 204 67 212 64 L 213 63 Q 212 58 214 57 L 214 48 L 212 45 Q 205 43 204 46 L 203 45 L 196 45 Z M 301 45 L 299 46 Q 294 49 293 55 L 294 62 L 300 65 L 306 63 Q 307 65 312 64 L 313 63 L 315 47 L 316 45 Q 310 44 309 46 L 301 45 Z M 319 45 L 316 62 L 316 64 L 323 64 L 324 54 L 328 50 L 331 53 L 329 61 Q 327 67 335 64 L 336 63 Q 335 58 337 57 L 337 48 L 335 45 Q 328 43 327 46 L 326 45 L 319 45 Z M 346 45 L 344 46 Q 339 49 338 55 L 339 62 L 345 65 L 350 64 L 351 64 L 350 67 L 348 68 L 344 66 L 337 66 L 338 71 L 345 74 L 353 72 L 357 67 L 360 47 L 361 45 Q 355 44 354 46 L 346 45 Z M 369 45 L 367 46 Q 362 49 361 55 L 362 62 L 368 65 Q 374 66 377 63 L 380 57 L 374 57 Q 372 60 368 59 L 369 56 L 381 56 L 380 48 Q 377 43 369 45 Z M 388 45 L 386 46 L 383 51 L 384 54 Q 387 57 393 58 L 392 60 L 388 58 L 382 58 L 383 63 L 389 65 L 396 64 Q 400 63 399 57 L 392 52 Q 389 53 390 50 Q 393 49 395 52 L 399 52 L 398 46 Q 395 44 388 45 Z M 17 48 L 16 51 L 17 54 L 22 56 L 26 55 Q 29 56 27 52 Q 24 47 17 48 Z M 39 48 L 34 52 Q 33 55 36 56 L 42 55 Q 45 54 44 50 Q 43 47 39 48 Z " /><path fill="rgb(0,0,0)" stroke="rgb(0,0,0)" stroke-width="1" opacity="0" d="M 141.5 50 L 145 52.5 L 139 53 Q 137.9 50.3 140.5 51 L 141.5 50 Z " /><path fill="rgb(0,0,0)" stroke="rgb(0,0,0)" stroke-width="1" opacity="0" d="M 182.5 50 Q 185.8 50.8 185 55.5 L 184 58 L 179.5 59 Q 177.3 58.3 178 54.5 L 180.5 51 L 182.5 50 Z " /><path fill="rgb(0,0,0)" stroke="rgb(0,0,0)" stroke-width="1" opacity="0" d="M 226.5 50 L 229 51 L 230 53.5 L 227.5 58 L 224.5 59 Q 221.5 58.5 222 54.5 L 224.5 51 L 226.5 50 Z " /><path fill="rgb(0,0,0)" stroke="rgb(0,0,0)" stroke-width="1" opacity="0" d="M 304.5 50 L 307 51 L 308 53.5 L 305.5 58 L 302.5 59 Q 299.5 58.5 300 54.5 L 302.5 51 L 304.5 50 Z " /><path fill="rgb(0,0,0)" stroke="rgb(0,0,0)" stroke-width="1" opacity="0" d="M 349.5 50 L 352 51 L 353 53.5 L 350.5 58 L 347.5 59 Q 344.5 58.5 345 54.5 L 347.5 51 L 349.5 50 Z " /><path fill="rgb(0,0,0)" stroke="rgb(0,0,0)" stroke-width="1" opacity="0" d="M 371.5 50 L 375 52.5 L 369 53 Q 367.9 50.3 370.5 51 L 371.5 50 Z " /><path fill="rgb(255,255,255)" stroke="rgb(255,255,255)" stroke-width="1" opacity="0.43529411764705883" d="M 12.5 27 Q 18 26 19 29.5 L 22.5 34 Q 27.2 31.8 35.5 33 L 38.5 34 L 44.5 27 Q 48.3 26.3 49 28.5 L 49 32.5 L 41.5 42 Q 36.8 42.8 35 40.5 L 36.5 40 L 40.5 41 L 47 33.5 L 48 28 Q 43.3 27 42 30.5 L 38.5 35 Q 33.8 32.7 25.5 34 L 21 35 L 16.5 28 Q 11 27 10 30.5 L 5 43.5 L 5 56.5 Q 7.5 64.5 13.5 69 L 19.5 72 L 23.5 72 L 25 68 Q 16.1 66.8 12 59.5 Q 8.7 54.8 10 45.5 L 11 45.5 Q 9.5 60.5 18.5 65 L 23.5 66 L 25.5 68 L 26 66.5 L 25 65.5 L 25 59 Q 27.4 57.3 33.5 58 Q 36.8 58.8 36 63.5 L 34.5 66 Q 41.8 67.3 44 63.5 L 47 57.5 L 50 45.5 L 56 35 L 62.5 31 L 72.5 29 L 81.5 31 L 90 37.5 L 94.5 44 Q 103.4 46.1 108 52.5 L 108 59.5 L 100.5 69 L 91.5 73 L 83.5 73 Q 80.5 72.5 81 68.5 Q 82.5 64.5 89.5 66 L 89.5 67 Q 83.5 65.5 82 68.5 L 83.5 72 Q 99.3 72.8 105 63.5 Q 108.2 60.2 107 52.5 Q 102.7 46.8 94.5 45 L 90 40.5 L 86.5 35 L 81.5 32 L 71.5 30 L 60.5 33 L 54 39.5 Q 49.4 46.9 48 57.5 L 42.5 66 L 34.5 67 L 32.5 64 Q 36.7 65.3 35 60.5 Q 33.5 57.5 27.5 59 Q 24.8 60.3 26 65.5 L 30.5 71 Q 34.3 73.7 42.5 72 L 50 65.5 L 53 59.5 L 56 47.5 L 62.5 38 Q 67.2 34.2 77.5 36 L 85 41.5 L 89.5 48 L 96 51.5 L 94.5 52 L 85 44.5 L 81.5 39 Q 76.8 35.2 66.5 37 L 66.5 38 Q 70.3 37.3 71 39.5 L 72 47.5 L 78 57.5 L 78 64.5 L 74.5 70 Q 70.4 74.9 59.5 73 L 54 70 L 53 64.5 Q 53.8 62.3 57.5 63 Q 59.7 67.3 67.5 66 L 70 65 L 71 59.5 L 66 52.5 L 65 46.5 L 66 46.5 L 66 49.5 L 72 59.5 L 72 62.5 L 69.5 66 L 61.5 67 L 55.5 64 L 54 67.5 Q 57.3 74.3 69.5 72 L 76 66.5 L 77 57.5 L 71 47.5 Q 71.8 41.4 70 39 Q 66.2 38 65 40.5 L 64.5 45 L 64 40.5 L 65.5 38 L 61 40.5 Q 55.4 47.9 54 59.5 L 47.5 70 Q 43.4 74.9 32.5 73 L 26.5 68 L 23.5 73 Q 11.8 71.8 7 63.5 Q 2 56.9 4 43.5 L 9 30.5 L 12.5 27 Z " /><path fill="rgb(255,255,255)" stroke="rgb(255,255,255)" stroke-width="1" opacity="0.43529411764705883" d="M 14.5 35 Q 16.8 34.3 16 36.5 L 19 41 L 26.5 39 L 33.5 39 L 33.5 40 L 26.5 40 Q 24.8 42.8 19.5 42 L 14.5 36 L 11.5 44 L 11 41.5 L 14.5 35 Z " /><path fill="rgb(255,255,255)" stroke="rgb(255,255,255)" stroke-width="1" opacity="0.43529411764705883" d="M 275.5 39 L 276 41.5 L 275 41.5 L 275.5 39 Z " /><path fill="rgb(255,255,255)" stroke="rgb(255,255,255)" stroke-width="1" opacity="0.43529411764705883" d="M 117.5 40 L 120 40.5 L 113.5 44 L 115.5 41 L 117.5 40 Z " /><path fill="rgb(255,255,255)" stroke="rgb(255,255,255)" stroke-width="1" opacity="0.43529411764705883" d="M 123.5 40 L 126 40.5 L 123.5 41 L 123.5 40 Z " /><path fill="rgb(255,255,255)" stroke="rgb(255,255,255)" stroke-width="1" opacity="0.43529411764705883" d="M 256.5 40 L 260 40.5 L 256.5 41 L 256.5 40 Z " /><path fill="rgb(255,255,255)" stroke="rgb(255,255,255)" stroke-width="1" opacity="0.43529411764705883" d="M 261.5 40 L 264 40.5 L 261.5 41 L 261.5 40 Z " /><path fill="rgb(255,255,255)" stroke="rgb(255,255,255)" stroke-width="1" opacity="0.43529411764705883" d="M 127.5 41 L 130 44.5 L 129 44.5 L 127.5 41 Z " /><path fill="rgb(255,255,255)" stroke="rgb(255,255,255)" stroke-width="1" opacity="0.43529411764705883" d="M 265.5 41 L 269 43.5 L 266.5 42 L 265.5 41 Z " /><path fill="rgb(255,255,255)" stroke="rgb(255,255,255)" stroke-width="1" opacity="0.43529411764705883" d="M 237.5 42 L 238 45.5 L 237 45.5 L 237.5 42 Z " /><path fill="rgb(255,255,255)" stroke="rgb(255,255,255)" stroke-width="1" opacity="0.43529411764705883" d="M 252.5 42 L 248.5 47 L 252.5 42 Z " /><path fill="rgb(255,255,255)" stroke="rgb(255,255,255)" stroke-width="1" opacity="0.43529411764705883" d="M 79.5 43 L 83 44 L 85 47.5 L 85 51.5 L 81.5 54 L 78 51.5 L 77 45.5 L 79.5 43 Z M 80 44 L 78 46 L 79 52 L 82 53 L 84 52 L 83 47 L 80 44 Z " /><path fill="rgb(255,255,255)" stroke="rgb(255,255,255)" stroke-width="1" opacity="0.43529411764705883" d="M 231.5 43 L 232 45.5 L 230 46.5 L 231.5 43 Z " /><path fill="rgb(255,255,255)" stroke="rgb(255,255,255)" stroke-width="1" opacity="0.43529411764705883" d="M 274.5 44 L 275 46.5 L 274 46.5 L 274.5 44 Z " /><path fill="rgb(255,255,255)" stroke="rgb(255,255,255)" stroke-width="1" opacity="0.43529411764705883" d="M 280.5 44 L 281.5 46 L 284.5 45 L 284.5 46 L 280.5 48 L 280.5 44 Z " /><path fill="rgb(255,255,255)" stroke="rgb(255,255,255)" stroke-width="1" opacity="0.43529411764705883" d="M 112.5 45 L 113 49.5 L 112 49.5 L 112.5 45 Z " /><path fill="rgb(255,255,255)" stroke="rgb(255,255,255)" stroke-width="1" opacity="0.43529411764705883" d="M 122.5 45 L 124 45 L 124.5 47 L 129.5 47 L 129.5 48 Q 122.5 49.5 123 46.5 L 122.5 45 Z " /><path fill="rgb(255,255,255)" stroke="rgb(255,255,255)" stroke-width="1" opacity="0.43529411764705883" d="M 138.5 45 L 141 45.5 L 134 49.5 L 132.5 53 L 132 51.5 L 136.5 46 L 138.5 45 Z " /><path fill="rgb(255,255,255)" stroke="rgb(255,255,255)" stroke-width="1" opacity="0.43529411764705883" d="M 158.5 45 L 161 45.5 L 154 49.5 L 152.5 53 L 152 51.5 L 156.5 46 L 158.5 45 Z " /><path fill="rgb(255,255,255)" stroke="rgb(255,255,255)" stroke-width="1" opacity="0.43529411764705883" d="M 196 45 L 202.5 45 L 203.5 46 L 206.5 45 L 206.5 46 L 202.5 48 L 202 46 L 196.5 47 L 196 45 Z " /><path fill="rgb(255,255,255)" stroke="rgb(255,255,255)" stroke-width="1" opacity="0.43529411764705883" d="M 209.5 45 Q 213.5 44.5 214 47.5 L 213.5 49 L 211.5 46 Q 208.5 46.5 209.5 45 Z " /><path fill="rgb(255,255,255)" stroke="rgb(255,255,255)" stroke-width="1" opacity="0.43529411764705883" d="M 287.5 45 Q 291.5 44.5 292 47.5 L 291.5 49 L 289.5 46 Q 286.5 46.5 287.5 45 Z " /><path fill="rgb(255,255,255)" stroke="rgb(255,255,255)" stroke-width="1" opacity="0.43529411764705883" d="M 309.5 45 L 316 45.5 L 308.5 47 L 309.5 45 Z " /><path fill="rgb(255,255,255)" stroke="rgb(255,255,255)" stroke-width="1" opacity="0.43529411764705883" d="M 319 45 L 325.5 45 L 326.5 46 L 329.5 45 L 329.5 46 L 325.5 48 L 325 46 L 319.5 47 L 319 45 Z " /><path fill="rgb(255,255,255)" stroke="rgb(255,255,255)" stroke-width="1" opacity="0.43529411764705883" d="M 332.5 45 Q 336.5 44.5 337 47.5 L 336.5 49 L 334.5 46 Q 331.5 46.5 332.5 45 Z " /><path fill="rgb(255,255,255)" stroke="rgb(255,255,255)" stroke-width="1" opacity="0.43529411764705883" d="M 354.5 45 L 361 45.5 L 353.5 47 L 354.5 45 Z " /><path fill="rgb(255,255,255)" stroke="rgb(255,255,255)" stroke-width="1" opacity="0.43529411764705883" d="M 368.5 45 L 371 45.5 L 364 49.5 L 362.5 53 L 362 51.5 L 366.5 46 L 368.5 45 Z " /><path fill="rgb(255,255,255)" stroke="rgb(255,255,255)" stroke-width="1" opacity="0.43529411764705883" d="M 387.5 45 L 389 45.5 L 385 47 L 384.5 49 L 384 47.5 L 387.5 45 Z " /><path fill="rgb(255,255,255)" stroke="rgb(255,255,255)" stroke-width="1" opacity="0.43529411764705883" d="M 394.5 45 L 398 46.5 L 396.5 47 L 394.5 45 Z " /><path fill="rgb(255,255,255)" stroke="rgb(255,255,255)" stroke-width="1" opacity="0.43529411764705883" d="M 148.5 46 L 149.5 48 L 148.5 46 Z " /><path fill="rgb(255,255,255)" stroke="rgb(255,255,255)" stroke-width="1" opacity="0.43529411764705883" d="M 168.5 46 Q 171.8 48 171 53 L 164.5 53 L 164 51.5 L 163.5 50 Q 164.9 53.3 170 52 L 168.5 46 Z " /><path fill="rgb(255,255,255)" stroke="rgb(255,255,255)" stroke-width="1" opacity="0.43529411764705883" d="M 188.5 46 L 190.5 49 L 188.5 46 Z " /><path fill="rgb(255,255,255)" stroke="rgb(255,255,255)" stroke-width="1" opacity="0.43529411764705883" d="M 220.5 46 L 218 49.5 L 216.5 53 L 216 51.5 L 220.5 46 Z " /><path fill="rgb(255,255,255)" stroke="rgb(255,255,255)" stroke-width="1" opacity="0.43529411764705883" d="M 298.5 46 L 296 49.5 L 294.5 53 L 294 51.5 L 298.5 46 Z " /><path fill="rgb(255,255,255)" stroke="rgb(255,255,255)" stroke-width="1" opacity="0.43529411764705883" d="M 343.5 46 L 341 49.5 L 339.5 53 L 339 51.5 L 343.5 46 Z " /><path fill="rgb(255,255,255)" stroke="rgb(255,255,255)" stroke-width="1" opacity="0.43529411764705883" d="M 378.5 46 L 379.5 48 L 378.5 46 Z " /><path fill="rgb(255,255,255)" stroke="rgb(255,255,255)" stroke-width="1" opacity="0.43529411764705883" d="M 175.5 47 L 174 49.5 L 172.5 53 L 172 51.5 L 175.5 47 Z " /><path fill="rgb(255,255,255)" stroke="rgb(255,255,255)" stroke-width="1" opacity="0.43529411764705883" d="M 17 48 L 19 48.5 L 17 51.5 Q 18.3 55.7 24.5 55 L 26 51.5 L 20 48.5 L 22.5 48 L 27 51.5 Q 28.5 55.9 25.5 55 L 21.5 56 L 17 54 L 16 50.5 L 17 48 Z " /><path fill="rgb(255,255,255)" stroke="rgb(255,255,255)" stroke-width="1" opacity="0.43529411764705883" d="M 38.5 48 L 40 48.5 L 35 51.5 L 36.5 55 L 39 55.5 L 35.5 56 Q 33.3 55.3 34 51.5 L 38.5 48 Z " /><path fill="rgb(255,255,255)" stroke="rgb(255,255,255)" stroke-width="1" opacity="0.43529411764705883" d="M 41.5 48 L 44 49.5 Q 44.8 54.3 41.5 55 L 40 54.5 L 43 52.5 Q 44.5 48.1 41.5 49 L 41.5 48 Z " /><path fill="rgb(255,255,255)" stroke="rgb(255,255,255)" stroke-width="1" opacity="0.43529411764705883" d="M 236.5 48 L 237 51.5 L 236 51.5 L 236.5 48 Z " /><path fill="rgb(255,255,255)" stroke="rgb(255,255,255)" stroke-width="1" opacity="0.43529411764705883" d="M 263.5 48 L 270 48.5 L 263.5 49 L 263.5 48 Z " /><path fill="rgb(255,255,255)" stroke="rgb(255,255,255)" stroke-width="1" opacity="0.43529411764705883" d="M 314.5 48 L 315 51.5 L 314 51.5 L 314.5 48 Z " /><path fill="rgb(255,255,255)" stroke="rgb(255,255,255)" stroke-width="1" opacity="0.43529411764705883" d="M 359.5 48 L 360 51.5 L 359 51.5 L 359.5 48 Z " /><path fill="rgb(255,255,255)" stroke="rgb(255,255,255)" stroke-width="1" opacity="0.43529411764705883" d="M 195.5 49 L 196 52.5 L 195 52.5 L 195.5 49 Z " /><path fill="rgb(255,255,255)" stroke="rgb(255,255,255)" stroke-width="1" opacity="0.43529411764705883" d="M 273.5 49 L 274 52.5 L 273 52.5 L 273.5 49 Z " /><path fill="rgb(255,255,255)" stroke="rgb(255,255,255)" stroke-width="1" opacity="0.43529411764705883" d="M 318.5 49 L 319 52.5 L 318 52.5 L 318.5 49 Z " /><path fill="rgb(255,255,255)" stroke="rgb(255,255,255)" stroke-width="1" opacity="0.43529411764705883" d="M 390.5 49 L 399 51.5 L 394.5 52 Q 393.4 49.2 390 50 L 389.5 52 L 389 50.5 L 390.5 49 Z " /><path fill="rgb(255,255,255)" stroke="rgb(255,255,255)" stroke-width="1" opacity="0.43529411764705883" d="M 139.5 50 L 141 50.5 L 139 51 L 138.5 53 L 138 51.5 L 139.5 50 Z " /><path fill="rgb(255,255,255)" stroke="rgb(255,255,255)" stroke-width="1" opacity="0.43529411764705883" d="M 143.5 50 Q 145.8 49.3 145 51.5 L 143.5 50 Z " /><path fill="rgb(255,255,255)" stroke="rgb(255,255,255)" stroke-width="1" opacity="0.43529411764705883" d="M 160.5 50 L 158.5 53 L 160.5 50 Z " /><path fill="rgb(255,255,255)" stroke="rgb(255,255,255)" stroke-width="1" opacity="0.43529411764705883" d="M 180.5 50 L 182 50.5 L 179 52.5 L 178.5 54 L 178 52.5 L 180.5 50 Z " /><path fill="rgb(255,255,255)" stroke="rgb(255,255,255)" stroke-width="1" opacity="0.43529411764705883" d="M 183.5 50 Q 186.5 50.5 186 54.5 L 185 54.5 L 183.5 50 Z " /><path fill="rgb(255,255,255)" stroke="rgb(255,255,255)" stroke-width="1" opacity="0.43529411764705883" d="M 191.5 50 L 192 55.5 L 191 55.5 L 191.5 50 Z " /><path fill="rgb(255,255,255)" stroke="rgb(255,255,255)" stroke-width="1" opacity="0.43529411764705883" d="M 203.5 50 L 201.5 53 L 203.5 50 Z " /><path fill="rgb(255,255,255)" stroke="rgb(255,255,255)" stroke-width="1" opacity="0.43529411764705883" d="M 206.5 50 L 207.5 52 L 206.5 50 Z " /><path fill="rgb(255,255,255)" stroke="rgb(255,255,255)" stroke-width="1" opacity="0.43529411764705883" d="M 224.5 50 L 226 50.5 L 223 52.5 L 222.5 54 L 222 52.5 L 224.5 50 Z " /><path fill="rgb(255,255,255)" stroke="rgb(255,255,255)" stroke-width="1" opacity="0.43529411764705883" d="M 227.5 50 L 230 51.5 L 229.5 53 L 229 51 L 227.5 50 Z " /><path fill="rgb(255,255,255)" stroke="rgb(255,255,255)" stroke-width="1" opacity="0.43529411764705883" d="M 246.5 50 L 247 52.5 L 246 52.5 L 246.5 50 Z " /><path fill="rgb(255,255,255)" stroke="rgb(255,255,255)" stroke-width="1" opacity="0.43529411764705883" d="M 281.5 50 L 279.5 53 L 281.5 50 Z " /><path fill="rgb(255,255,255)" stroke="rgb(255,255,255)" stroke-width="1" opacity="0.43529411764705883" d="M 284.5 50 L 285.5 52 L 284.5 50 Z " /><path fill="rgb(255,255,255)" stroke="rgb(255,255,255)" stroke-width="1" opacity="0.43529411764705883" d="M 302.5 50 L 304 50.5 L 301 52.5 L 300.5 54 L 300 52.5 L 302.5 50 Z " /><path fill="rgb(255,255,255)" stroke="rgb(255,255,255)" stroke-width="1" opacity="0.43529411764705883" d="M 305.5 50 L 308 51.5 L 307.5 53 L 307 51 L 305.5 50 Z " /><path fill="rgb(255,255,255)" stroke="rgb(255,255,255)" stroke-width="1" opacity="0.43529411764705883" d="M 326.5 50 L 324.5 53 L 326.5 50 Z " /><path fill="rgb(255,255,255)" stroke="rgb(255,255,255)" stroke-width="1" opacity="0.43529411764705883" d="M 329.5 50 L 330.5 52 L 329.5 50 Z " /><path fill="rgb(255,255,255)" stroke="rgb(255,255,255)" stroke-width="1" opacity="0.43529411764705883" d="M 347.5 50 L 349 50.5 L 346 52.5 L 345.5 54 L 345 52.5 L 347.5 50 Z " /><path fill="rgb(255,255,255)" stroke="rgb(255,255,255)" stroke-width="1" opacity="0.43529411764705883" d="M 350.5 50 L 353 51.5 L 352.5 53 L 352 51 L 350.5 50 Z " /><path fill="rgb(255,255,255)" stroke="rgb(255,255,255)" stroke-width="1" opacity="0.43529411764705883" d="M 369.5 50 L 371 50.5 L 369 51 L 368.5 53 L 368 51.5 L 369.5 50 Z " /><path fill="rgb(255,255,255)" stroke="rgb(255,255,255)" stroke-width="1" opacity="0.43529411764705883" d="M 373.5 50 Q 375.8 49.3 375 51.5 L 373.5 50 Z " /><path fill="rgb(255,255,255)" stroke="rgb(255,255,255)" stroke-width="1" opacity="0.43529411764705883" d="M 113.5 51 L 114.5 53 L 113.5 51 Z " /><path fill="rgb(255,255,255)" stroke="rgb(255,255,255)" stroke-width="1" opacity="0.43529411764705883" d="M 125.5 51 L 129 55.5 L 128 55.5 L 125.5 51 Z " /><path fill="rgb(255,255,255)" stroke="rgb(255,255,255)" stroke-width="1" opacity="0.43529411764705883" d="M 252.5 51 Q 251.6 56.4 254.5 58 L 256 58.5 L 254.5 59 Q 250.3 57.3 252.5 51 Z " /><path fill="rgb(255,255,255)" stroke="rgb(255,255,255)" stroke-width="1" opacity="0.43529411764705883" d="M 97.5 52 L 99 54.5 L 98 57.5 L 101 59.5 L 94.5 65 L 94.5 64 L 99 60.5 L 97 55.5 L 98 53.5 L 97.5 52 Z " /><path fill="rgb(255,255,255)" stroke="rgb(255,255,255)" stroke-width="1" opacity="0.43529411764705883" d="M 384.5 53 L 390 56.5 L 388.5 57 L 384.5 53 Z " /><path fill="rgb(255,255,255)" stroke="rgb(255,255,255)" stroke-width="1" opacity="0.43529411764705883" d="M 118.5 54 L 121 55.5 L 119.5 55 L 118.5 54 Z " /><path fill="rgb(255,255,255)" stroke="rgb(255,255,255)" stroke-width="1" opacity="0.43529411764705883" d="M 131.5 54 L 132 58.5 L 131 58.5 L 131.5 54 Z " /><path fill="rgb(255,255,255)" stroke="rgb(255,255,255)" stroke-width="1" opacity="0.43529411764705883" d="M 150 54 Q 153.7 52.6 152 58.5 L 151 58.5 L 150 54 Z " /><path fill="rgb(255,255,255)" stroke="rgb(255,255,255)" stroke-width="1" opacity="0.43529411764705883" d="M 171.5 54 L 172 58.5 L 171 58.5 L 171.5 54 Z " /><path fill="rgb(255,255,255)" stroke="rgb(255,255,255)" stroke-width="1" opacity="0.43529411764705883" d="M 207.5 54 L 208 57.5 L 207 57.5 L 207.5 54 Z " /><path fill="rgb(255,255,255)" stroke="rgb(255,255,255)" stroke-width="1" opacity="0.43529411764705883" d="M 213.5 54 L 214 56.5 L 213 56.5 L 213.5 54 Z " /><path fill="rgb(255,255,255)" stroke="rgb(255,255,255)" stroke-width="1" opacity="0.43529411764705883" d="M 215.5 54 L 216 58.5 L 215 58.5 L 215.5 54 Z " /><path fill="rgb(255,255,255)" stroke="rgb(255,255,255)" stroke-width="1" opacity="0.43529411764705883" d="M 235.5 54 L 236 56.5 L 235 56.5 L 235.5 54 Z " /><path fill="rgb(255,255,255)" stroke="rgb(255,255,255)" stroke-width="1" opacity="0.43529411764705883" d="M 285.5 54 L 286 57.5 L 285 57.5 L 285.5 54 Z " /><path fill="rgb(255,255,255)" stroke="rgb(255,255,255)" stroke-width="1" opacity="0.43529411764705883" d="M 291.5 54 L 292 56.5 L 291 56.5 L 291.5 54 Z " /><path fill="rgb(255,255,255)" stroke="rgb(255,255,255)" stroke-width="1" opacity="0.43529411764705883" d="M 293.5 54 L 294 58.5 L 293 58.5 L 293.5 54 Z " /><path fill="rgb(255,255,255)" stroke="rgb(255,255,255)" stroke-width="1" opacity="0.43529411764705883" d="M 313.5 54 L 314 56.5 L 313 56.5 L 313.5 54 Z " /><path fill="rgb(255,255,255)" stroke="rgb(255,255,255)" stroke-width="1" opacity="0.43529411764705883" d="M 330.5 54 L 331 57.5 L 330 57.5 L 330.5 54 Z " /><path fill="rgb(255,255,255)" stroke="rgb(255,255,255)" stroke-width="1" opacity="0.43529411764705883" d="M 336.5 54 L 337 56.5 L 336 56.5 L 336.5 54 Z " /><path fill="rgb(255,255,255)" stroke="rgb(255,255,255)" stroke-width="1" opacity="0.43529411764705883" d="M 338.5 54 L 339 58.5 L 338 58.5 L 338.5 54 Z " /><path fill="rgb(255,255,255)" stroke="rgb(255,255,255)" stroke-width="1" opacity="0.43529411764705883" d="M 358.5 54 L 359 56.5 L 358 56.5 L 358.5 54 Z " /><path fill="rgb(255,255,255)" stroke="rgb(255,255,255)" stroke-width="1" opacity="0.43529411764705883" d="M 361.5 54 L 362 58.5 L 361 58.5 L 361.5 54 Z " /><path fill="rgb(255,255,255)" stroke="rgb(255,255,255)" stroke-width="1" opacity="0.43529411764705883" d="M 396.5 54 Q 400 55 399 60.5 L 394.5 64 L 394.5 63 L 398 60.5 Q 398.6 55 396.5 54 Z " /><path fill="rgb(255,255,255)" stroke="rgb(255,255,255)" stroke-width="1" opacity="0.43529411764705883" d="M 194.5 55 L 195 58.5 L 194 58.5 L 194.5 55 Z " /><path fill="rgb(255,255,255)" stroke="rgb(255,255,255)" stroke-width="1" opacity="0.43529411764705883" d="M 200.5 55 L 201 57.5 L 200 57.5 L 200.5 55 Z " /><path fill="rgb(255,255,255)" stroke="rgb(255,255,255)" stroke-width="1" opacity="0.43529411764705883" d="M 221.5 55 L 224 58.5 L 222 59 L 221.5 55 Z " /><path fill="rgb(255,255,255)" stroke="rgb(255,255,255)" stroke-width="1" opacity="0.43529411764705883" d="M 272.5 55 L 273 58.5 L 272 58.5 L 272.5 55 Z " /><path fill="rgb(255,255,255)" stroke="rgb(255,255,255)" stroke-width="1" opacity="0.43529411764705883" d="M 278.5 55 L 279 57.5 L 278 57.5 L 278.5 55 Z " /><path fill="rgb(255,255,255)" stroke="rgb(255,255,255)" stroke-width="1" opacity="0.43529411764705883" d="M 299.5 55 L 302 58.5 L 300 59 L 299.5 55 Z " /><path fill="rgb(255,255,255)" stroke="rgb(255,255,255)" stroke-width="1" opacity="0.43529411764705883" d="M 317.5 55 L 318 58.5 L 317 58.5 L 317.5 55 Z " /><path fill="rgb(255,255,255)" stroke="rgb(255,255,255)" stroke-width="1" opacity="0.43529411764705883" d="M 323.5 55 L 324 57.5 L 323 57.5 L 323.5 55 Z " /><path fill="rgb(255,255,255)" stroke="rgb(255,255,255)" stroke-width="1" opacity="0.43529411764705883" d="M 344.5 55 L 347 58.5 L 345 59 L 344.5 55 Z " /><path fill="rgb(255,255,255)" stroke="rgb(255,255,255)" stroke-width="1" opacity="0.43529411764705883" d="M 122.5 56 L 123 58.5 Q 122.3 60.8 118.5 60 L 117 57.5 L 118 57.5 L 118 59 L 122 59 L 122.5 56 Z " /><path fill="rgb(255,255,255)" stroke="rgb(255,255,255)" stroke-width="1" opacity="0.43529411764705883" d="M 246.5 56 L 250 62.5 L 247 60.5 L 246.5 56 Z " /><path fill="rgb(255,255,255)" stroke="rgb(255,255,255)" stroke-width="1" opacity="0.43529411764705883" d="M 261.5 56 L 259.5 59 L 258 58.5 L 261.5 56 Z " /><path fill="rgb(255,255,255)" stroke="rgb(255,255,255)" stroke-width="1" opacity="0.43529411764705883" d="M 268.5 56 L 269 57.5 Q 266.6 62.6 260.5 64 L 260.5 63 L 268 57.5 L 268.5 56 Z " /><path fill="rgb(255,255,255)" stroke="rgb(255,255,255)" stroke-width="1" opacity="0.43529411764705883" d="M 143.5 57 Q 150.5 55.5 150 58.5 L 146.5 63 L 143.5 64 L 143.5 63 L 148 60.5 L 149 58.5 L 143.5 58 L 139.5 60 L 139.5 59 L 143.5 57 Z " /><path fill="rgb(255,255,255)" stroke="rgb(255,255,255)" stroke-width="1" opacity="0.43529411764705883" d="M 163.5 57 L 162.5 59 L 163.5 57 Z " /><path fill="rgb(255,255,255)" stroke="rgb(255,255,255)" stroke-width="1" opacity="0.43529411764705883" d="M 169.5 57 L 170 58.5 L 168 59.5 L 169.5 57 Z " /><path fill="rgb(255,255,255)" stroke="rgb(255,255,255)" stroke-width="1" opacity="0.43529411764705883" d="M 190.5 57 L 191 58.5 L 186 62.5 L 190.5 57 Z " /><path fill="rgb(255,255,255)" stroke="rgb(255,255,255)" stroke-width="1" opacity="0.43529411764705883" d="M 228.5 57 L 227.5 59 L 226 58.5 L 228.5 57 Z " /><path fill="rgb(255,255,255)" stroke="rgb(255,255,255)" stroke-width="1" opacity="0.43529411764705883" d="M 306.5 57 L 305.5 59 L 304 58.5 L 306.5 57 Z " /><path fill="rgb(255,255,255)" stroke="rgb(255,255,255)" stroke-width="1" opacity="0.43529411764705883" d="M 351.5 57 L 350.5 59 L 349 58.5 L 351.5 57 Z " /><path fill="rgb(255,255,255)" stroke="rgb(255,255,255)" stroke-width="1" opacity="0.43529411764705883" d="M 373.5 57 Q 380.5 55.5 380 58.5 L 376.5 63 L 373.5 64 L 373.5 63 L 378 60.5 L 379 58.5 L 373.5 58 L 369.5 60 L 369.5 59 L 373.5 57 Z " /><path fill="rgb(255,255,255)" stroke="rgb(255,255,255)" stroke-width="1" opacity="0.43529411764705883" d="M 382.5 58 L 385.5 63 L 387 63.5 L 385.5 64 L 383 63 L 382.5 58 Z " /><path fill="rgb(255,255,255)" stroke="rgb(255,255,255)" stroke-width="1" opacity="0.43529411764705883" d="M 111.5 59 L 114.5 63 L 116 63.5 L 114.5 64 L 111 60.5 L 111.5 59 Z " /><path fill="rgb(255,255,255)" stroke="rgb(255,255,255)" stroke-width="1" opacity="0.43529411764705883" d="M 212.5 59 L 213 62.5 L 212 62.5 L 212.5 59 Z " /><path fill="rgb(255,255,255)" stroke="rgb(255,255,255)" stroke-width="1" opacity="0.43529411764705883" d="M 234.5 59 L 235 62.5 L 234 62.5 L 234.5 59 Z " /><path fill="rgb(255,255,255)" stroke="rgb(255,255,255)" stroke-width="1" opacity="0.43529411764705883" d="M 290.5 59 L 291 62.5 L 290 62.5 L 290.5 59 Z " /><path fill="rgb(255,255,255)" stroke="rgb(255,255,255)" stroke-width="1" opacity="0.43529411764705883" d="M 312.5 59 L 313 62.5 L 312 62.5 L 312.5 59 Z " /><path fill="rgb(255,255,255)" stroke="rgb(255,255,255)" stroke-width="1" opacity="0.43529411764705883" d="M 335.5 59 L 336 62.5 L 335 62.5 L 335.5 59 Z " /><path fill="rgb(255,255,255)" stroke="rgb(255,255,255)" stroke-width="1" opacity="0.43529411764705883" d="M 357.5 59 L 358 62.5 L 357 62.5 L 357.5 59 Z " /><path fill="rgb(255,255,255)" stroke="rgb(255,255,255)" stroke-width="1" opacity="0.43529411764705883" d="M 132.5 60 L 134 62.5 L 132 61.5 L 132.5 60 Z " /><path fill="rgb(255,255,255)" stroke="rgb(255,255,255)" stroke-width="1" opacity="0.43529411764705883" d="M 152.5 60 L 154 62.5 L 152 61.5 L 152.5 60 Z " /><path fill="rgb(255,255,255)" stroke="rgb(255,255,255)" stroke-width="1" opacity="0.43529411764705883" d="M 172.5 60 L 177 63.5 L 175.5 64 L 172.5 60 Z " /><path fill="rgb(255,255,255)" stroke="rgb(255,255,255)" stroke-width="1" opacity="0.43529411764705883" d="M 199.5 60 L 200 63.5 L 199 63.5 L 199.5 60 Z " /><path fill="rgb(255,255,255)" stroke="rgb(255,255,255)" stroke-width="1" opacity="0.43529411764705883" d="M 206.5 60 L 207 62.5 L 206 62.5 L 206.5 60 Z " /><path fill="rgb(255,255,255)" stroke="rgb(255,255,255)" stroke-width="1" opacity="0.43529411764705883" d="M 216.5 60 L 218.5 63 L 220 63.5 L 218.5 64 Q 214.9 62.9 216.5 60 Z " /><path fill="rgb(255,255,255)" stroke="rgb(255,255,255)" stroke-width="1" opacity="0.43529411764705883" d="M 277.5 60 L 278 63.5 L 277 63.5 L 277.5 60 Z " /><path fill="rgb(255,255,255)" stroke="rgb(255,255,255)" stroke-width="1" opacity="0.43529411764705883" d="M 284.5 60 L 285 62.5 L 284 62.5 L 284.5 60 Z " /><path fill="rgb(255,255,255)" stroke="rgb(255,255,255)" stroke-width="1" opacity="0.43529411764705883" d="M 294.5 60 L 296.5 63 L 298 63.5 L 296.5 64 Q 292.9 62.9 294.5 60 Z " /><path fill="rgb(255,255,255)" stroke="rgb(255,255,255)" stroke-width="1" opacity="0.43529411764705883" d="M 322.5 60 L 323 63.5 L 322 63.5 L 322.5 60 Z " /><path fill="rgb(255,255,255)" stroke="rgb(255,255,255)" stroke-width="1" opacity="0.43529411764705883" d="M 329.5 60 L 330 62.5 L 329 62.5 L 329.5 60 Z " /><path fill="rgb(255,255,255)" stroke="rgb(255,255,255)" stroke-width="1" opacity="0.43529411764705883" d="M 339.5 60 L 341.5 63 L 343 63.5 L 341.5 64 Q 337.9 62.9 339.5 60 Z " /><path fill="rgb(255,255,255)" stroke="rgb(255,255,255)" stroke-width="1" opacity="0.43529411764705883" d="M 362.5 60 L 364 62.5 L 362 61.5 L 362.5 60 Z " /><path fill="rgb(255,255,255)" stroke="rgb(255,255,255)" stroke-width="1" opacity="0.43529411764705883" d="M 127.5 61 L 126.5 63 L 127.5 61 Z " /><path fill="rgb(255,255,255)" stroke="rgb(255,255,255)" stroke-width="1" opacity="0.43529411764705883" d="M 193.5 61 L 194 63.5 L 193 63.5 L 193.5 61 Z " /><path fill="rgb(255,255,255)" stroke="rgb(255,255,255)" stroke-width="1" opacity="0.43529411764705883" d="M 271.5 61 L 272 63.5 L 271 63.5 L 271.5 61 Z " /><path fill="rgb(255,255,255)" stroke="rgb(255,255,255)" stroke-width="1" opacity="0.43529411764705883" d="M 316.5 61 L 317 63.5 L 316 63.5 L 316.5 61 Z " /><path fill="rgb(255,255,255)" stroke="rgb(255,255,255)" stroke-width="1" opacity="0.43529411764705883" d="M 165.5 62 L 164.5 64 L 163 63.5 L 165.5 62 Z " /><path fill="rgb(255,255,255)" stroke="rgb(255,255,255)" stroke-width="1" opacity="0.43529411764705883" d="M 227.5 62 L 229 62.5 L 225.5 64 L 225.5 63 L 227.5 62 Z " /><path fill="rgb(255,255,255)" stroke="rgb(255,255,255)" stroke-width="1" opacity="0.43529411764705883" d="M 305.5 62 L 307 62.5 L 303.5 64 L 303.5 63 L 305.5 62 Z " /><path fill="rgb(255,255,255)" stroke="rgb(255,255,255)" stroke-width="1" opacity="0.43529411764705883" d="M 350.5 62 L 352 62.5 L 348.5 64 L 348.5 63 L 350.5 62 Z " /><path fill="rgb(255,255,255)" stroke="rgb(255,255,255)" stroke-width="1" opacity="0.43529411764705883" d="M 117.5 64 L 122 64.5 L 117.5 65 L 117.5 64 Z " /><path fill="rgb(255,255,255)" stroke="rgb(255,255,255)" stroke-width="1" opacity="0.43529411764705883" d="M 137.5 64 L 142 64.5 L 137.5 65 L 137.5 64 Z " /><path fill="rgb(255,255,255)" stroke="rgb(255,255,255)" stroke-width="1" opacity="0.43529411764705883" d="M 157.5 64 L 162 64.5 L 157.5 65 L 157.5 64 Z " /><path fill="rgb(255,255,255)" stroke="rgb(255,255,255)" stroke-width="1" opacity="0.43529411764705883" d="M 178.5 64 L 182 64.5 L 178.5 65 L 178.5 64 Z " /><path fill="rgb(255,255,255)" stroke="rgb(255,255,255)" stroke-width="1" opacity="0.43529411764705883" d="M 221.5 64 L 224 64.5 L 221.5 65 L 221.5 64 Z " /><path fill="rgb(255,255,255)" stroke="rgb(255,255,255)" stroke-width="1" opacity="0.43529411764705883" d="M 255.5 64 L 258 64.5 L 255.5 65 L 255.5 64 Z " /><path fill="rgb(255,255,255)" stroke="rgb(255,255,255)" stroke-width="1" opacity="0.43529411764705883" d="M 299.5 64 L 302 64.5 L 299.5 65 L 299.5 64 Z " /><path fill="rgb(255,255,255)" stroke="rgb(255,255,255)" stroke-width="1" opacity="0.43529411764705883" d="M 344.5 64 L 347 64.5 L 344.5 65 L 344.5 64 Z " /><path fill="rgb(255,255,255)" stroke="rgb(255,255,255)" stroke-width="1" opacity="0.43529411764705883" d="M 367.5 64 L 372 64.5 L 367.5 65 L 367.5 64 Z " /><path fill="rgb(255,255,255)" stroke="rgb(255,255,255)" stroke-width="1" opacity="0.43529411764705883" d="M 388.5 64 L 393 64.5 L 388.5 65 L 388.5 64 Z " /><path fill="rgb(255,255,255)" stroke="rgb(255,255,255)" stroke-width="1" opacity="0.43529411764705883" d="M 337.5 66 L 338 68.5 L 337 68.5 L 337.5 66 Z " /><path fill="rgb(255,255,255)" stroke="rgb(255,255,255)" stroke-width="1" opacity="0.43529411764705883" d="M 343.5 66 L 344.5 68 L 343.5 66 Z " /><path fill="rgb(255,255,255)" stroke="rgb(255,255,255)" stroke-width="1" opacity="0.43529411764705883" d="M 355.5 68 L 352.5 72 L 355.5 68 Z " /><path fill="rgb(255,255,255)" stroke="rgb(255,255,255)" stroke-width="1" opacity="0.43529411764705883" d="M 338.5 70 L 339.5 72 L 338.5 70 Z " /><path fill="rgb(255,255,255)" stroke="rgb(255,255,255)" stroke-width="1" opacity="0.43529411764705883" d="M 344.5 73 L 347 73.5 L 344.5 74 L 344.5 73 Z " /><path fill="rgb(255,255,255)" stroke="rgb(255,255,255)" stroke-width="1" opacity="0.996078431372549" d="M 12.5 28 Q 17 27 18 29.5 L 21 35 Q 26.3 33.2 35.5 34 L 38.5 35 L 44.5 28 Q 49.8 26.3 48 31.5 L 40.5 41 L 33.5 39 L 26.5 39 L 19 41 L 16 35 L 13 36.5 L 10 45.5 L 10 54.5 Q 12.1 62.4 18.5 66 L 25 68 L 23.5 72 Q 13.3 71.2 9 64.5 Q 2.8 58.2 5 43.5 Q 6.8 33.8 12.5 28 Z " /><path fill="rgb(255,255,255)" stroke="rgb(255,255,255)" stroke-width="1" opacity="0.996078431372549" d="M 71.5 30 L 81.5 32 L 89 37.5 L 94.5 45 Q 102.7 46.8 107 52.5 L 107 59.5 L 100.5 68 L 91.5 72 L 83.5 72 L 82 68.5 L 83.5 67 L 89.5 67 L 95.5 65 L 101 59.5 L 98 57.5 L 99 53.5 L 86 44.5 L 81.5 38 Q 76.8 34.2 66.5 36 L 59 41.5 Q 54.4 48.9 53 59.5 Q 50.4 66.9 44.5 71 Q 40.7 73.7 32.5 72 L 27 67.5 L 26 60.5 Q 27.5 57.5 33.5 59 Q 36 60.2 35 64 L 32 64.5 Q 33.5 68.5 40.5 67 L 45 63.5 L 54 39.5 L 60.5 33 L 71.5 30 Z " /><path fill="rgb(255,255,255)" stroke="rgb(255,255,255)" stroke-width="1" opacity="0.996078431372549" d="M 66.5 39 Q 70.9 37.5 70 40.5 Q 72.5 42 71 47.5 L 77 57.5 L 77 64.5 L 71.5 71 Q 67.7 73.7 59.5 72 L 54 67.5 L 55.5 64 L 61.5 67 L 67.5 67 L 71 64.5 L 72 59.5 Q 64.9 53.6 65 40.5 L 66.5 39 Z " /><path fill="rgb(255,255,255)" stroke="rgb(255,255,255)" stroke-width="1" opacity="0.996078431372549" d="M 233 39 L 238 39 L 238 41.5 L 234 64 L 228 63.5 L 228.5 62 Q 226.2 64.7 220.5 64 L 217 61.5 L 216 53.5 L 221.5 46 L 226.5 45 L 230.5 47 L 232 45.5 L 233 39 Z M 225 50 L 221 56 L 222 58 Q 221 60 228 59 Q 231 57 230 52 Q 229 49 225 50 Z " /><path fill="rgb(255,255,255)" stroke="rgb(255,255,255)" stroke-width="1" opacity="0.996078431372549" d="M 276 39 L 281 39 L 281 43.5 L 280 47.5 L 282.5 46 L 286.5 45 L 291 47.5 L 292 53.5 L 290 64 L 284 63.5 L 286 57.5 L 286 51.5 Q 285.3 49.3 281.5 50 L 278 55.5 L 277 64 L 272 64 L 272 59.5 L 276 39 Z " /><path fill="rgb(255,255,255)" stroke="rgb(255,255,255)" stroke-width="1" opacity="0.996078431372549" d="M 120.5 40 L 126.5 41 L 129 43.5 L 130 47 L 124.5 47 Q 125.3 43.5 119 45 L 119 49 L 120.5 49 L 128 54.5 L 129 57.5 L 125.5 63 L 116.5 64 L 112 60.5 L 111 57 L 116.5 57 L 117 58.5 Q 117.8 60.8 121.5 60 L 123 56 L 115.5 53 L 113 50.5 Q 111.5 43.5 115.5 42 L 120.5 40 Z " /><path fill="rgb(255,255,255)" stroke="rgb(255,255,255)" stroke-width="1" opacity="0.996078431372549" d="M 260.5 40 L 266.5 42 L 269 44.5 L 270 47.5 L 263 48 Q 264.3 45 260.5 46 L 258.5 45 L 254 47 Q 251.3 49.6 252 56.5 Q 253.3 60.3 259.5 59 Q 261.3 54.5 268 56 L 263.5 62 Q 260.5 65 253.5 64 L 248 60.5 L 246 53.5 Q 247.4 45.4 253.5 42 L 260.5 40 Z " /><path fill="rgb(255,255,255)" stroke="rgb(255,255,255)" stroke-width="1" opacity="0.996078431372549" d="M 79.5 44 L 83 46.5 L 84 51.5 L 81.5 53 L 79 52 L 78 45.5 L 79.5 44 Z " /><path fill="rgb(255,255,255)" stroke="rgb(255,255,255)" stroke-width="1" opacity="0.996078431372549" d="M 141.5 45 Q 147.9 44.6 150 48.5 L 151 53.5 L 150 56 L 137.5 56 L 137 57.5 Q 137.5 60.5 141.5 60 Q 142.8 56.8 148.5 58 L 148 59.5 L 146.5 62 Q 143.5 65 136.5 64 L 133 61.5 L 132 53.5 L 136.5 47 L 141.5 45 Z M 140 50 L 138 52 L 139 53 L 145 53 Q 147 48 140 50 Z " /><path fill="rgb(255,255,255)" stroke="rgb(255,255,255)" stroke-width="1" opacity="0.996078431372549" d="M 161.5 45 Q 167 44.5 169 47.5 L 170 52 L 160.5 50 Q 157.3 51.8 157 56.5 L 158 59 L 160.5 60 Q 162.8 55.9 169 57 L 166.5 62 Q 163.5 65 156.5 64 L 153 61.5 L 152 53.5 L 156.5 47 L 161.5 45 Z " /><path fill="rgb(255,255,255)" stroke="rgb(255,255,255)" stroke-width="1" opacity="0.996078431372549" d="M 181.5 45 Q 188.8 44.8 191 49.5 Q 192.6 60.6 185.5 63 L 177.5 64 L 172 59.5 Q 170.8 49.8 176.5 47 L 181.5 45 Z M 181 50 L 177 56 L 178 58 Q 177 61 183 59 Q 186 57 186 53 Q 185 49 181 50 Z " /><path fill="rgb(255,255,255)" stroke="rgb(255,255,255)" stroke-width="1" opacity="0.996078431372549" d="M 207.5 45 L 213 47.5 L 214 53.5 L 212 64 L 206 63.5 L 208 57.5 L 208 51.5 Q 207.3 49.3 203.5 50 L 200 55.5 L 199 64 L 194 64 L 194 59.5 L 195 58.5 L 196 47.5 L 197.5 46 Q 202.9 44.1 202 47.5 L 204.5 46 L 207.5 45 Z " /><path fill="rgb(255,255,255)" stroke="rgb(255,255,255)" stroke-width="1" opacity="0.996078431372549" d="M 302.5 45 L 308.5 47 L 315 46 L 312 64 L 306 63.5 L 306.5 62 Q 304.2 64.7 298.5 64 L 295 61.5 L 294 53.5 L 299.5 46 L 302.5 45 Z M 303 50 L 299 56 L 300 58 Q 299 60 306 59 Q 309 57 308 52 Q 307 49 303 50 Z " /><path fill="rgb(255,255,255)" stroke="rgb(255,255,255)" stroke-width="1" opacity="0.996078431372549" d="M 330.5 45 L 336 47.5 L 337 53.5 L 335 64 L 329 63.5 L 331 57.5 L 331 51.5 Q 330.3 49.3 326.5 50 L 323 55.5 L 322 64 L 317 64 L 317 59.5 L 318 58.5 L 319 47.5 L 320.5 46 Q 325.9 44.1 325 47.5 L 327.5 46 L 330.5 45 Z " /><path fill="rgb(255,255,255)" stroke="rgb(255,255,255)" stroke-width="1" opacity="0.996078431372549" d="M 347.5 45 L 353.5 47 L 360 46 L 357 59.5 L 357 64.5 L 351.5 72 L 343.5 73 L 338 69.5 Q 336.2 63.8 342.5 66 Q 343.5 69 348.5 68 L 352 62.5 L 350.5 62 Q 348.8 64.8 343.5 64 L 340 61.5 L 339 53.5 L 344.5 46 L 347.5 45 Z M 348 50 L 344 56 L 345 58 Q 344 60 351 59 Q 354 57 353 52 Q 352 49 348 50 Z " /><path fill="rgb(255,255,255)" stroke="rgb(255,255,255)" stroke-width="1" opacity="0.996078431372549" d="M 371.5 45 Q 377.9 44.6 380 48.5 L 381 53.5 L 380 56 L 367.5 56 L 367 57.5 Q 367.5 60.5 371.5 60 Q 372.8 56.8 378.5 58 L 378 59.5 L 376.5 62 Q 373.5 65 366.5 64 L 363 61.5 L 362 53.5 L 366.5 47 L 371.5 45 Z M 370 50 L 368 52 L 369 53 L 375 53 Q 377 48 370 50 Z " /><path fill="rgb(255,255,255)" stroke="rgb(255,255,255)" stroke-width="1" opacity="0.996078431372549" d="M 389.5 45 Q 395.7 44.4 398 47 L 399 51 L 394.5 51 L 390.5 49 L 389 52 L 395.5 54 L 398 56.5 Q 399 62 395.5 63 L 387.5 64 L 383 60.5 L 383 58 L 388 58 L 388 60 L 393 60 Q 394.7 55.9 390.5 57 L 384 52.5 L 385 47 L 389.5 45 Z " /><path fill="rgb(255,255,255)" stroke="rgb(255,255,255)" stroke-width="1" opacity="0.996078431372549" d="M 19.5 48 L 26 51.5 L 24.5 55 Q 18.3 55.7 17 51.5 L 19.5 48 Z " /><path fill="rgb(255,255,255)" stroke="rgb(255,255,255)" stroke-width="1" opacity="0.996078431372549" d="M 40.5 48 L 43 49 Q 44 52.8 41.5 54 L 36.5 55 L 35 51.5 L 40.5 48 Z " /></svg>