<svg width="400" height="100" version="1.1" xmlns="http://www.w3.org/2000/svg" desc="Created with imagetracer.js version 1.2.6" ><path fill="rgb(0,0,0)" stroke="rgb(0,0,0)" stroke-width="1" opacity="0" d="M 0 0 L 399.5 0 L 400 0.5 L 400 100 L 0.5 100 L 0 99.5 L 0 0 Z M 13 27 L 9 31 L 4 44 Q 2 58 8 65 Q 12 71 21 73 Q 25 74 26 71 L 25 69 L 16 63 L 11 56 L 11 45 L 13 38 L 16 36 L 17 40 L 21 42 L 26 40 L 35 40 L 42 42 L 47 35 Q 46 32 49 33 L 49 29 Q 48 26 45 27 L 42 31 Q 42 34 37 34 L 34 33 Q 26 32 23 35 L 21 33 L 16 27 L 13 27 Z M 67 30 L 60 33 L 54 39 L 44 64 L 42 66 L 38 67 L 34 66 L 36 63 Q 36 59 34 58 Q 32 61 27 59 L 25 61 L 26 68 L 34 73 L 42 73 L 49 69 L 54 59 L 59 43 Q 61 37 69 37 L 72 36 Q 78 36 82 39 Q 86 40 85 45 Q 90 51 98 54 L 97 56 L 98 59 L 100 60 L 99 62 L 92 66 L 85 66 L 81 68 L 84 73 L 95 72 L 102 68 L 108 59 L 107 52 Q 102 46 94 44 L 89 37 L 78 30 L 67 30 Z M 68 38 L 64 41 L 66 52 L 71 59 L 71 64 L 66 67 L 61 66 Q 60 63 56 63 Q 52 64 53 68 L 61 73 L 69 73 L 75 70 L 78 64 L 77 56 Q 72 52 71 45 L 72 43 L 71 41 L 68 38 Z M 230 39 L 229 46 L 227 45 L 219 46 Q 214 49 213 55 L 214 62 L 220 65 L 226 63 Q 227 65 232 64 L 233 63 L 233 58 L 237 40 L 230 39 Z M 273 39 L 269 62 L 269 64 L 276 64 L 277 54 L 281 50 L 284 53 L 282 61 Q 280 67 288 64 L 289 63 Q 288 58 290 57 L 290 48 Q 288 43 281 45 L 279 46 L 280 41 L 280 39 L 273 39 Z M 116 40 L 114 41 L 110 46 L 111 52 L 119 56 Q 121 55 120 59 Q 115 61 116 57 L 109 57 L 109 61 L 116 65 Q 122 66 125 63 Q 128 61 127 55 Q 124 50 119 49 L 117 47 L 120 45 L 121 48 L 128 48 L 128 44 Q 125 38 116 40 Z M 255 40 L 251 42 L 244 51 Q 243 57 245 61 L 248 63 L 254 65 L 262 63 L 267 56 Q 259 54 256 59 L 251 57 L 252 49 L 256 46 L 260 47 L 261 47 L 262 49 L 268 49 L 267 44 Q 264 39 255 40 Z M 80 43 L 77 46 Q 76 51 80 53 Q 84 54 85 52 L 84 47 L 80 43 Z M 137 45 L 135 46 Q 130 49 129 55 L 130 62 L 136 65 Q 142 66 145 63 L 148 57 L 142 57 Q 140 60 136 59 L 137 56 L 149 56 L 150 62 L 156 65 L 160 65 L 166 62 L 168 57 Q 161 55 160 59 L 156 58 Q 155 51 160 50 L 162 52 L 163 53 L 169 53 L 168 48 L 165 45 Q 158 44 155 46 Q 150 48 150 54 L 148 48 Q 145 43 137 45 Z M 178 45 L 174 47 L 169 55 L 170 61 L 177 65 L 185 63 L 190 56 L 189 49 Q 187 43 178 45 Z M 194 45 L 191 62 L 191 64 L 198 64 L 199 54 L 203 50 L 206 53 L 204 61 Q 202 67 210 64 L 211 63 Q 210 58 212 57 L 212 48 L 210 45 Q 203 43 202 46 L 201 45 L 194 45 Z M 299 45 L 297 46 Q 292 49 291 55 L 292 62 L 298 65 L 304 63 Q 305 65 310 64 L 311 63 L 313 47 L 314 45 Q 308 44 307 46 L 299 45 Z M 317 45 L 314 62 L 314 64 L 321 64 L 322 54 L 326 50 L 329 53 L 327 61 Q 325 67 333 64 L 334 63 Q 333 58 335 57 L 335 48 L 333 45 Q 326 43 325 46 L 324 45 L 317 45 Z M 344 45 L 342 46 Q 337 49 336 55 L 337 62 L 343 65 L 348 64 L 349 64 L 348 67 L 346 68 L 342 66 L 335 66 L 336 71 L 343 74 L 351 72 L 355 67 L 358 47 L 359 45 Q 353 44 352 46 L 344 45 Z M 367 45 L 365 46 Q 360 49 359 55 L 360 62 L 366 65 Q 372 66 375 63 L 378 57 L 372 57 Q 370 60 366 59 L 367 56 L 379 56 L 378 48 Q 375 43 367 45 Z M 386 45 L 384 46 L 381 51 L 382 54 Q 385 57 391 58 L 390 60 L 386 58 L 380 58 L 381 63 L 387 65 L 394 64 Q 398 63 397 57 L 390 52 Q 387 53 388 50 Q 391 49 393 52 L 397 52 L 396 46 Q 393 44 386 45 Z M 19 48 Q 16 49 17 53 L 23 56 Q 26 57 27 54 L 26 50 L 19 48 Z M 40 48 L 34 52 Q 33 55 36 56 L 42 55 Q 45 54 44 50 Q 43 47 40 48 Z " /><path fill="rgb(0,0,0)" stroke="rgb(0,0,0)" stroke-width="1" opacity="0" d="M 139.5 50 L 143 52.5 L 137 53 Q 135.9 50.3 138.5 51 L 139.5 50 Z " /><path fill="rgb(0,0,0)" stroke="rgb(0,0,0)" stroke-width="1" opacity="0" d="M 180.5 50 Q 183.8 50.8 183 55.5 L 182 58 L 177.5 59 Q 175.3 58.3 176 54.5 L 178.5 51 L 180.5 50 Z " /><path fill="rgb(0,0,0)" stroke="rgb(0,0,0)" stroke-width="1" opacity="0" d="M 224.5 50 L 227 51 L 228 53.5 L 225.5 58 L 222.5 59 Q 219.5 58.5 220 54.5 L 222.5 51 L 224.5 50 Z " /><path fill="rgb(0,0,0)" stroke="rgb(0,0,0)" stroke-width="1" opacity="0" d="M 302.5 50 L 305 51 L 306 53.5 L 303.5 58 L 300.5 59 Q 297.5 58.5 298 54.5 L 300.5 51 L 302.5 50 Z " /><path fill="rgb(0,0,0)" stroke="rgb(0,0,0)" stroke-width="1" opacity="0" d="M 347.5 50 L 350 51 L 351 53.5 L 348.5 58 L 345.5 59 Q 342.5 58.5 343 54.5 L 345.5 51 L 347.5 50 Z " /><path fill="rgb(0,0,0)" stroke="rgb(0,0,0)" stroke-width="1" opacity="0" d="M 369.5 50 L 373 52.5 L 367 53 Q 365.9 50.3 368.5 51 L 369.5 50 Z " /><path fill="rgb(34,34,34)" stroke="rgb(34,34,34)" stroke-width="1" opacity="0.984313725490196" d="M 12.5 28 Q 17 27 18 29.5 L 21 35 Q 26.3 33.2 35.5 34 L 38.5 35 L 44.5 28 Q 49.8 26.3 48 31.5 L 40.5 41 L 33.5 39 L 26.5 39 Q 24.8 41.8 19.5 41 L 16 35 L 13 36.5 L 10 45.5 L 10 54.5 Q 12.1 62.4 18.5 66 L 25 68.5 L 23.5 72 L 16.5 71 L 9 64.5 Q 2.7 57.8 5 42.5 L 10 30.5 L 12.5 28 Z " /><path fill="rgb(34,34,34)" stroke="rgb(34,34,34)" stroke-width="1" opacity="0.984313725490196" d="M 71.5 30 L 81.5 32 L 89 37.5 L 94.5 45 Q 102.7 46.8 107 52.5 L 108 55.5 Q 106.5 64 100.5 68 L 91.5 72 L 83.5 72 L 82 68.5 L 83.5 67 L 89.5 67 L 95.5 65 L 101 59.5 L 98 57.5 L 99 53.5 L 90.5 49 L 86 44.5 L 81.5 38 Q 76.8 34.2 66.5 36 L 59 41.5 Q 54.4 48.9 53 59.5 Q 50.4 66.9 44.5 71 Q 40.7 73.7 32.5 72 L 27 67.5 L 25 61.5 Q 26.5 57.5 33.5 59 Q 36 60.2 35 64 L 32 64.5 Q 33.5 68.5 40.5 67 L 45 63.5 L 54 39.5 L 60.5 33 L 71.5 30 Z " /><path fill="rgb(34,34,34)" stroke="rgb(34,34,34)" stroke-width="1" opacity="0.984313725490196" d="M 66.5 39 Q 70.9 37.5 70 40.5 Q 72.5 42 71 47.5 L 77 57.5 L 77 64.5 L 71.5 71 L 64.5 73 L 57.5 71 L 54 67.5 L 55.5 64 L 61.5 67 L 67.5 67 L 71 64.5 L 72 59.5 Q 64.9 53.6 65 40.5 L 66.5 39 Z " /><path fill="rgb(34,34,34)" stroke="rgb(34,34,34)" stroke-width="1" opacity="0.984313725490196" d="M 231 39 L 236 39 L 236 41.5 L 232 64 L 226 63.5 L 226.5 62 Q 224.2 64.7 218.5 64 L 215 61.5 L 214 53.5 L 219.5 46 L 224.5 45 L 228.5 47 L 230 45.5 L 231 39 Z M 223 50 L 219 56 L 220 58 Q 219 60 226 59 Q 229 57 228 52 Q 227 49 223 50 Z " /><path fill="rgb(34,34,34)" stroke="rgb(34,34,34)" stroke-width="1" opacity="0.984313725490196" d="M 274 39 L 279 39 L 279 43.5 L 278 47.5 L 280.5 46 L 284.5 45 L 289 47.5 L 290 53.5 L 288 64 L 282 63.5 L 284 57.5 L 284 51.5 Q 283.3 49.3 279.5 50 L 276 55.5 L 275 64 L 270 64 L 270 59.5 L 274 39 Z " /><path fill="rgb(34,34,34)" stroke="rgb(34,34,34)" stroke-width="1" opacity="0.984313725490196" d="M 118.5 40 L 124.5 41 L 127 43.5 L 128 47 L 122.5 47 Q 123.3 43.5 117 45 L 117 49 L 118.5 49 L 126 54.5 L 127 57.5 L 123.5 63 L 114.5 64 L 110 60.5 L 109 57 L 114.5 57 L 115 58.5 Q 115.8 60.8 119.5 60 L 121 56 L 113.5 53 L 111 50.5 Q 109.5 43.5 113.5 42 L 118.5 40 Z " /><path fill="rgb(34,34,34)" stroke="rgb(34,34,34)" stroke-width="1" opacity="0.984313725490196" d="M 258.5 40 L 264.5 42 L 267 44.5 L 268 47.5 L 261 48 Q 262.3 45 258.5 46 L 256.5 45 L 252 47 Q 249.3 49.6 250 56.5 Q 251.3 60.3 257.5 59 Q 259.3 54.5 266 56 L 261.5 62 Q 258.5 65 251.5 64 L 246 60.5 L 244 53.5 Q 245.4 45.4 251.5 42 L 258.5 40 Z " /><path fill="rgb(34,34,34)" stroke="rgb(34,34,34)" stroke-width="1" opacity="0.984313725490196" d="M 79.5 44 L 83 46.5 L 84 51.5 L 81.5 53 L 79 52 L 78 45.5 L 79.5 44 Z " /><path fill="rgb(34,34,34)" stroke="rgb(34,34,34)" stroke-width="1" opacity="0.984313725490196" d="M 139.5 45 Q 145.9 44.6 148 48.5 L 149 53.5 L 148 56 L 135.5 56 L 135 57.5 Q 135.5 60.5 139.5 60 Q 140.8 56.8 146.5 58 L 146 59.5 L 144.5 62 Q 141.5 65 134.5 64 L 131 61.5 L 130 53.5 L 134.5 47 L 139.5 45 Z M 138 50 L 136 52 L 137 53 L 143 53 Q 145 48 138 50 Z " /><path fill="rgb(34,34,34)" stroke="rgb(34,34,34)" stroke-width="1" opacity="0.984313725490196" d="M 159.5 45 Q 165 44.5 167 47.5 L 168 52 L 158.5 50 Q 155.3 51.8 155 56.5 L 156 59 L 158.5 60 Q 160.8 55.9 167 57 L 164.5 62 Q 161.5 65 154.5 64 L 151 61.5 L 150 53.5 L 154.5 47 L 159.5 45 Z " /><path fill="rgb(34,34,34)" stroke="rgb(34,34,34)" stroke-width="1" opacity="0.984313725490196" d="M 179.5 45 Q 186.8 44.8 189 49.5 Q 190.6 60.6 183.5 63 L 175.5 64 L 170 59.5 Q 168.8 49.8 174.5 47 L 179.5 45 Z M 179 50 L 175 56 L 176 58 Q 175 61 181 59 Q 184 57 184 53 Q 183 49 179 50 Z " /><path fill="rgb(34,34,34)" stroke="rgb(34,34,34)" stroke-width="1" opacity="0.984313725490196" d="M 205.5 45 L 211 47.5 L 212 53.5 L 210 64 L 204 63.5 L 206 57.5 L 206 51.5 Q 205.3 49.3 201.5 50 L 198 55.5 L 197 64 L 192 64 L 192 59.5 L 193 58.5 L 194 47.5 L 195.5 46 Q 200.9 44.1 200 47.5 L 202.5 46 L 205.5 45 Z " /><path fill="rgb(34,34,34)" stroke="rgb(34,34,34)" stroke-width="1" opacity="0.984313725490196" d="M 300.5 45 L 306.5 47 L 313 46 L 310 64 L 304 63.5 L 304.5 62 Q 302.2 64.7 296.5 64 L 293 61.5 L 292 53.5 L 297.5 46 L 300.5 45 Z M 301 50 L 297 56 L 298 58 Q 297 60 304 59 Q 307 57 306 52 Q 305 49 301 50 Z " /><path fill="rgb(34,34,34)" stroke="rgb(34,34,34)" stroke-width="1" opacity="0.984313725490196" d="M 328.5 45 L 334 47.5 L 335 53.5 L 333 64 L 327 63.5 L 329 57.5 L 329 51.5 Q 328.3 49.3 324.5 50 L 321 55.5 L 320 64 L 315 64 L 315 59.5 L 316 58.5 L 317 47.5 L 318.5 46 Q 323.9 44.1 323 47.5 L 325.5 46 L 328.5 45 Z " /><path fill="rgb(34,34,34)" stroke="rgb(34,34,34)" stroke-width="1" opacity="0.984313725490196" d="M 345.5 45 L 351.5 47 L 358 46 L 355 59.5 L 355 64.5 L 349.5 72 L 341.5 73 L 336 69.5 Q 334.2 63.8 340.5 66 Q 341.5 69 346.5 68 L 350 62.5 L 348.5 62 Q 346.8 64.8 341.5 64 L 338 61.5 L 337 53.5 L 342.5 46 L 345.5 45 Z M 346 50 L 342 56 L 343 58 Q 342 60 349 59 Q 352 57 351 52 Q 350 49 346 50 Z " /><path fill="rgb(34,34,34)" stroke="rgb(34,34,34)" stroke-width="1" opacity="0.984313725490196" d="M 369.5 45 Q 375.9 44.6 378 48.5 L 379 53.5 L 378 56 L 365.5 56 L 365 57.5 Q 365.5 60.5 369.5 60 Q 370.8 56.8 376.5 58 L 376 59.5 L 374.5 62 Q 371.5 65 364.5 64 L 361 61.5 L 360 53.5 L 364.5 47 L 369.5 45 Z M 368 50 L 366 52 L 367 53 L 373 53 Q 375 48 368 50 Z " /><path fill="rgb(34,34,34)" stroke="rgb(34,34,34)" stroke-width="1" opacity="0.984313725490196" d="M 387.5 45 Q 393.7 44.4 396 47 L 397 51 L 392.5 51 L 388.5 49 L 387 52 L 393.5 54 L 396 56.5 Q 397 62 393.5 63 L 385.5 64 L 381 60.5 L 381 58 L 386 58 L 386 60 L 391 60 Q 392.7 55.9 388.5 57 L 382 52.5 L 383 47 L 387.5 45 Z " /><path fill="rgb(34,34,34)" stroke="rgb(34,34,34)" stroke-width="1" opacity="0.984313725490196" d="M 19.5 48 L 26 51.5 L 24.5 55 Q 18.3 55.7 17 51.5 L 19.5 48 Z " /><path fill="rgb(34,34,34)" stroke="rgb(34,34,34)" stroke-width="1" opacity="0.984313725490196" d="M 40.5 48 L 43 49.5 Q 43.8 53.3 41.5 54 L 35 55 Q 34 51.2 36.5 50 L 40.5 48 Z " /><path fill="rgb(35,35,35)" stroke="rgb(35,35,35)" stroke-width="1" opacity="0.4196078431372549" d="M 12.5 27 L 16 27.5 Q 11.3 27.3 10 30.5 L 8.5 34 L 8 32.5 L 12.5 27 Z " /><path fill="rgb(35,35,35)" stroke="rgb(35,35,35)" stroke-width="1" opacity="0.4196078431372549" d="M 44.5 27 Q 48.3 26.3 49 28.5 Q 50.9 33.9 47.5 33 L 48 31.5 Q 49.8 26.3 44.5 28 L 42 29.5 L 44.5 27 Z " /><path fill="rgb(35,35,35)" stroke="rgb(35,35,35)" stroke-width="1" opacity="0.4196078431372549" d="M 18.5 30 L 20.5 33 L 18.5 30 Z " /><path fill="rgb(35,35,35)" stroke="rgb(35,35,35)" stroke-width="1" opacity="0.4196078431372549" d="M 66.5 30 L 71 30.5 L 66.5 31 L 66.5 30 Z " /><path fill="rgb(35,35,35)" stroke="rgb(35,35,35)" stroke-width="1" opacity="0.4196078431372549" d="M 73.5 30 L 78 30.5 L 73.5 31 L 73.5 30 Z " /><path fill="rgb(35,35,35)" stroke="rgb(35,35,35)" stroke-width="1" opacity="0.4196078431372549" d="M 41.5 31 L 38.5 35 L 35 33.5 L 36.5 34 Q 41 34.5 41.5 31 Z " /><path fill="rgb(35,35,35)" stroke="rgb(35,35,35)" stroke-width="1" opacity="0.4196078431372549" d="M 26.5 33 L 34 33.5 L 26.5 34 L 26.5 33 Z " /><path fill="rgb(35,35,35)" stroke="rgb(35,35,35)" stroke-width="1" opacity="0.4196078431372549" d="M 59.5 33 L 54.5 39 L 59.5 33 Z " /><path fill="rgb(35,35,35)" stroke="rgb(35,35,35)" stroke-width="1" opacity="0.4196078431372549" d="M 84.5 33 L 85.5 35 L 84.5 33 Z " /><path fill="rgb(35,35,35)" stroke="rgb(35,35,35)" stroke-width="1" opacity="0.4196078431372549" d="M 46.5 34 L 45.5 36 L 46.5 34 Z " /><path fill="rgb(35,35,35)" stroke="rgb(35,35,35)" stroke-width="1" opacity="0.4196078431372549" d="M 14.5 35 L 16 35.5 L 13.5 37 L 14.5 35 Z " /><path fill="rgb(35,35,35)" stroke="rgb(35,35,35)" stroke-width="1" opacity="0.4196078431372549" d="M 87.5 35 L 88.5 37 L 87.5 35 Z " /><path fill="rgb(35,35,35)" stroke="rgb(35,35,35)" stroke-width="1" opacity="0.4196078431372549" d="M 66.5 36 L 69 36.5 L 66.5 37 L 66.5 36 Z " /><path fill="rgb(35,35,35)" stroke="rgb(35,35,35)" stroke-width="1" opacity="0.4196078431372549" d="M 75.5 36 L 78 36.5 L 75.5 37 L 75.5 36 Z " /><path fill="rgb(35,35,35)" stroke="rgb(35,35,35)" stroke-width="1" opacity="0.4196078431372549" d="M 16.5 37 L 19 40.5 L 17 39.5 L 16.5 37 Z " /><path fill="rgb(35,35,35)" stroke="rgb(35,35,35)" stroke-width="1" opacity="0.4196078431372549" d="M 79.5 37 L 85 41.5 L 81.5 39 L 79.5 37 Z " /><path fill="rgb(35,35,35)" stroke="rgb(35,35,35)" stroke-width="1" opacity="0.4196078431372549" d="M 43.5 38 L 42 40.5 Q 42.9 43.5 38.5 42 L 38.5 41 Q 43 41.5 43.5 38 Z " /><path fill="rgb(35,35,35)" stroke="rgb(35,35,35)" stroke-width="1" opacity="0.4196078431372549" d="M 62.5 38 L 59.5 42 L 62.5 38 Z " /><path fill="rgb(35,35,35)" stroke="rgb(35,35,35)" stroke-width="1" opacity="0.4196078431372549" d="M 89.5 38 L 91 40.5 L 90 40.5 L 89.5 38 Z " /><path fill="rgb(35,35,35)" stroke="rgb(35,35,35)" stroke-width="1" opacity="0.4196078431372549" d="M 26.5 39 L 34 39.5 L 26.5 40 L 26.5 39 Z " /><path fill="rgb(35,35,35)" stroke="rgb(35,35,35)" stroke-width="1" opacity="0.4196078431372549" d="M 65.5 39 L 64.5 41 L 65.5 39 Z " /><path fill="rgb(35,35,35)" stroke="rgb(35,35,35)" stroke-width="1" opacity="0.4196078431372549" d="M 273.5 39 L 274 41.5 L 273 41.5 L 273.5 39 Z " /><path fill="rgb(35,35,35)" stroke="rgb(35,35,35)" stroke-width="1" opacity="0.4196078431372549" d="M 115.5 40 L 118 40.5 L 111.5 44 L 113.5 41 L 115.5 40 Z " /><path fill="rgb(35,35,35)" stroke="rgb(35,35,35)" stroke-width="1" opacity="0.4196078431372549" d="M 121.5 40 L 124 40.5 L 121.5 41 L 121.5 40 Z " /><path fill="rgb(35,35,35)" stroke="rgb(35,35,35)" stroke-width="1" opacity="0.4196078431372549" d="M 254.5 40 L 258 40.5 L 254.5 41 L 254.5 40 Z " /><path fill="rgb(35,35,35)" stroke="rgb(35,35,35)" stroke-width="1" opacity="0.4196078431372549" d="M 259.5 40 L 262 40.5 L 259.5 41 L 259.5 40 Z " /><path fill="rgb(35,35,35)" stroke="rgb(35,35,35)" stroke-width="1" opacity="0.4196078431372549" d="M 11.5 41 L 12 43.5 L 11 43.5 L 11.5 41 Z " /><path fill="rgb(35,35,35)" stroke="rgb(35,35,35)" stroke-width="1" opacity="0.4196078431372549" d="M 20.5 41 L 23 41.5 L 20.5 42 L 20.5 41 Z " /><path fill="rgb(35,35,35)" stroke="rgb(35,35,35)" stroke-width="1" opacity="0.4196078431372549" d="M 125.5 41 L 128 44.5 L 127 44.5 L 125.5 41 Z " /><path fill="rgb(35,35,35)" stroke="rgb(35,35,35)" stroke-width="1" opacity="0.4196078431372549" d="M 263.5 41 L 267 43.5 L 264.5 42 L 263.5 41 Z " /><path fill="rgb(35,35,35)" stroke="rgb(35,35,35)" stroke-width="1" opacity="0.4196078431372549" d="M 235.5 42 L 236 45.5 L 235 45.5 L 235.5 42 Z " /><path fill="rgb(35,35,35)" stroke="rgb(35,35,35)" stroke-width="1" opacity="0.4196078431372549" d="M 250.5 42 L 246.5 47 L 250.5 42 Z " /><path fill="rgb(35,35,35)" stroke="rgb(35,35,35)" stroke-width="1" opacity="0.4196078431372549" d="M 4.5 43 L 5 55.5 L 4 55.5 L 4.5 43 Z " /><path fill="rgb(35,35,35)" stroke="rgb(35,35,35)" stroke-width="1" opacity="0.4196078431372549" d="M 79.5 43 L 78 45.5 L 77.5 49 L 77 45.5 L 79.5 43 Z " /><path fill="rgb(35,35,35)" stroke="rgb(35,35,35)" stroke-width="1" opacity="0.4196078431372549" d="M 85.5 43 L 90 48.5 L 85 44.5 L 85.5 43 Z " /><path fill="rgb(35,35,35)" stroke="rgb(35,35,35)" stroke-width="1" opacity="0.4196078431372549" d="M 229.5 43 L 230 45.5 L 228 46.5 L 229.5 43 Z " /><path fill="rgb(35,35,35)" stroke="rgb(35,35,35)" stroke-width="1" opacity="0.4196078431372549" d="M 81.5 44 Q 85.7 45.3 85 51.5 L 83 52.5 L 84 48.5 L 81.5 44 Z " /><path fill="rgb(35,35,35)" stroke="rgb(35,35,35)" stroke-width="1" opacity="0.4196078431372549" d="M 272.5 44 L 273 46.5 L 272 46.5 L 272.5 44 Z " /><path fill="rgb(35,35,35)" stroke="rgb(35,35,35)" stroke-width="1" opacity="0.4196078431372549" d="M 278.5 44 L 279.5 46 L 282.5 45 L 282.5 46 L 278.5 48 L 278.5 44 Z " /><path fill="rgb(35,35,35)" stroke="rgb(35,35,35)" stroke-width="1" opacity="0.4196078431372549" d="M 10.5 45 L 11 54.5 L 10 54.5 L 10.5 45 Z " /><path fill="rgb(35,35,35)" stroke="rgb(35,35,35)" stroke-width="1" opacity="0.4196078431372549" d="M 71.5 45 L 72 47.5 L 71 47.5 L 71.5 45 Z " /><path fill="rgb(35,35,35)" stroke="rgb(35,35,35)" stroke-width="1" opacity="0.4196078431372549" d="M 110.5 45 L 111 49.5 L 110 49.5 L 110.5 45 Z " /><path fill="rgb(35,35,35)" stroke="rgb(35,35,35)" stroke-width="1" opacity="0.4196078431372549" d="M 120.5 45 L 122 45 L 122.5 47 L 127.5 47 L 127.5 48 Q 120.5 49.5 121 46.5 L 120.5 45 Z " /><path fill="rgb(35,35,35)" stroke="rgb(35,35,35)" stroke-width="1" opacity="0.4196078431372549" d="M 136.5 45 L 139 45.5 L 132 49.5 L 130.5 53 L 130 51.5 L 134.5 46 L 136.5 45 Z " /><path fill="rgb(35,35,35)" stroke="rgb(35,35,35)" stroke-width="1" opacity="0.4196078431372549" d="M 156.5 45 L 159 45.5 L 152 49.5 L 150.5 53 L 150 51.5 L 154.5 46 L 156.5 45 Z " /><path fill="rgb(35,35,35)" stroke="rgb(35,35,35)" stroke-width="1" opacity="0.4196078431372549" d="M 194 45 L 200.5 45 L 201.5 46 L 204.5 45 L 204.5 46 L 200.5 48 L 200 46 L 194.5 47 L 194 45 Z " /><path fill="rgb(35,35,35)" stroke="rgb(35,35,35)" stroke-width="1" opacity="0.4196078431372549" d="M 207.5 45 Q 211.5 44.5 212 47.5 L 211.5 49 L 209.5 46 Q 206.5 46.5 207.5 45 Z " /><path fill="rgb(35,35,35)" stroke="rgb(35,35,35)" stroke-width="1" opacity="0.4196078431372549" d="M 285.5 45 Q 289.5 44.5 290 47.5 L 289.5 49 L 287.5 46 Q 284.5 46.5 285.5 45 Z " /><path fill="rgb(35,35,35)" stroke="rgb(35,35,35)" stroke-width="1" opacity="0.4196078431372549" d="M 307.5 45 L 314 45.5 L 306.5 47 L 307.5 45 Z " /><path fill="rgb(35,35,35)" stroke="rgb(35,35,35)" stroke-width="1" opacity="0.4196078431372549" d="M 317 45 L 323.5 45 L 324.5 46 L 327.5 45 L 327.5 46 L 323.5 48 L 323 46 L 317.5 47 L 317 45 Z " /><path fill="rgb(35,35,35)" stroke="rgb(35,35,35)" stroke-width="1" opacity="0.4196078431372549" d="M 330.5 45 Q 334.5 44.5 335 47.5 L 334.5 49 L 332.5 46 Q 329.5 46.5 330.5 45 Z " /><path fill="rgb(35,35,35)" stroke="rgb(35,35,35)" stroke-width="1" opacity="0.4196078431372549" d="M 352.5 45 L 359 45.5 L 351.5 47 L 352.5 45 Z " /><path fill="rgb(35,35,35)" stroke="rgb(35,35,35)" stroke-width="1" opacity="0.4196078431372549" d="M 366.5 45 L 369 45.5 L 362 49.5 L 360.5 53 L 360 51.5 L 364.5 46 L 366.5 45 Z " /><path fill="rgb(35,35,35)" stroke="rgb(35,35,35)" stroke-width="1" opacity="0.4196078431372549" d="M 385.5 45 L 387 45.5 L 383 47 L 382.5 49 L 382 47.5 L 385.5 45 Z " /><path fill="rgb(35,35,35)" stroke="rgb(35,35,35)" stroke-width="1" opacity="0.4196078431372549" d="M 392.5 45 L 396 46.5 L 394.5 47 L 392.5 45 Z " /><path fill="rgb(35,35,35)" stroke="rgb(35,35,35)" stroke-width="1" opacity="0.4196078431372549" d="M 65.5 46 L 66 48.5 L 65 48.5 L 65.5 46 Z " /><path fill="rgb(35,35,35)" stroke="rgb(35,35,35)" stroke-width="1" opacity="0.4196078431372549" d="M 98.5 46 L 103 48.5 L 101.5 48 Q 97.7 47.7 98.5 46 Z " /><path fill="rgb(35,35,35)" stroke="rgb(35,35,35)" stroke-width="1" opacity="0.4196078431372549" d="M 146.5 46 L 147.5 48 L 146.5 46 Z " /><path fill="rgb(35,35,35)" stroke="rgb(35,35,35)" stroke-width="1" opacity="0.4196078431372549" d="M 166.5 46 Q 169.8 48 169 53 L 162.5 53 L 162 51.5 L 161.5 50 Q 163 53.3 168 52 L 166.5 46 Z " /><path fill="rgb(35,35,35)" stroke="rgb(35,35,35)" stroke-width="1" opacity="0.4196078431372549" d="M 186.5 46 L 188.5 49 L 186.5 46 Z " /><path fill="rgb(35,35,35)" stroke="rgb(35,35,35)" stroke-width="1" opacity="0.4196078431372549" d="M 218.5 46 L 216 49.5 L 214.5 53 L 214 51.5 L 218.5 46 Z " /><path fill="rgb(35,35,35)" stroke="rgb(35,35,35)" stroke-width="1" opacity="0.4196078431372549" d="M 296.5 46 L 294 49.5 L 292.5 53 L 292 51.5 L 296.5 46 Z " /><path fill="rgb(35,35,35)" stroke="rgb(35,35,35)" stroke-width="1" opacity="0.4196078431372549" d="M 341.5 46 L 339 49.5 L 337.5 53 L 337 51.5 L 341.5 46 Z " /><path fill="rgb(35,35,35)" stroke="rgb(35,35,35)" stroke-width="1" opacity="0.4196078431372549" d="M 376.5 46 L 377.5 48 L 376.5 46 Z " /><path fill="rgb(35,35,35)" stroke="rgb(35,35,35)" stroke-width="1" opacity="0.4196078431372549" d="M 173.5 47 L 172 49.5 L 170.5 53 L 170 51.5 L 173.5 47 Z " /><path fill="rgb(35,35,35)" stroke="rgb(35,35,35)" stroke-width="1" opacity="0.4196078431372549" d="M 18.5 48 L 17.5 50 L 18.5 48 Z " /><path fill="rgb(35,35,35)" stroke="rgb(35,35,35)" stroke-width="1" opacity="0.4196078431372549" d="M 42.5 48 Q 44.8 48.8 44 52.5 L 40.5 55 L 40.5 54 L 43 52.5 L 42.5 48 Z " /><path fill="rgb(35,35,35)" stroke="rgb(35,35,35)" stroke-width="1" opacity="0.4196078431372549" d="M 234.5 48 L 235 51.5 L 234 51.5 L 234.5 48 Z " /><path fill="rgb(35,35,35)" stroke="rgb(35,35,35)" stroke-width="1" opacity="0.4196078431372549" d="M 261.5 48 L 268 48.5 L 261.5 49 L 261.5 48 Z " /><path fill="rgb(35,35,35)" stroke="rgb(35,35,35)" stroke-width="1" opacity="0.4196078431372549" d="M 312.5 48 L 313 51.5 L 312 51.5 L 312.5 48 Z " /><path fill="rgb(35,35,35)" stroke="rgb(35,35,35)" stroke-width="1" opacity="0.4196078431372549" d="M 357.5 48 L 358 51.5 L 357 51.5 L 357.5 48 Z " /><path fill="rgb(35,35,35)" stroke="rgb(35,35,35)" stroke-width="1" opacity="0.4196078431372549" d="M 104.5 49 L 106.5 52 L 104.5 49 Z " /><path fill="rgb(35,35,35)" stroke="rgb(35,35,35)" stroke-width="1" opacity="0.4196078431372549" d="M 193.5 49 L 194 52.5 L 193 52.5 L 193.5 49 Z " /><path fill="rgb(35,35,35)" stroke="rgb(35,35,35)" stroke-width="1" opacity="0.4196078431372549" d="M 271.5 49 L 272 52.5 L 271 52.5 L 271.5 49 Z " /><path fill="rgb(35,35,35)" stroke="rgb(35,35,35)" stroke-width="1" opacity="0.4196078431372549" d="M 316.5 49 L 317 52.5 L 316 52.5 L 316.5 49 Z " /><path fill="rgb(35,35,35)" stroke="rgb(35,35,35)" stroke-width="1" opacity="0.4196078431372549" d="M 388.5 49 L 397 51.5 L 392.5 52 Q 391.4 49.2 388 50 L 387.5 52 L 387 50.5 L 388.5 49 Z " /><path fill="rgb(35,35,35)" stroke="rgb(35,35,35)" stroke-width="1" opacity="0.4196078431372549" d="M 35.5 50 L 35 51.5 Q 33.3 56.8 38.5 55 L 38.5 56 Q 34.8 56.8 34 54.5 Q 33.3 50.8 35.5 50 Z " /><path fill="rgb(35,35,35)" stroke="rgb(35,35,35)" stroke-width="1" opacity="0.4196078431372549" d="M 66.5 50 L 69 54.5 L 67 53.5 L 66.5 50 Z " /><path fill="rgb(35,35,35)" stroke="rgb(35,35,35)" stroke-width="1" opacity="0.4196078431372549" d="M 78.5 50 L 79 52 L 81 52.5 L 79.5 53 L 78.5 50 Z " /><path fill="rgb(35,35,35)" stroke="rgb(35,35,35)" stroke-width="1" opacity="0.4196078431372549" d="M 93.5 50 L 96 51.5 L 94.5 52 L 93.5 50 Z " /><path fill="rgb(35,35,35)" stroke="rgb(35,35,35)" stroke-width="1" opacity="0.4196078431372549" d="M 137.5 50 L 139 50.5 L 137 51 L 136.5 53 L 136 51.5 L 137.5 50 Z " /><path fill="rgb(35,35,35)" stroke="rgb(35,35,35)" stroke-width="1" opacity="0.4196078431372549" d="M 141.5 50 Q 143.8 49.3 143 51.5 L 141.5 50 Z " /><path fill="rgb(35,35,35)" stroke="rgb(35,35,35)" stroke-width="1" opacity="0.4196078431372549" d="M 158.5 50 L 156.5 53 L 158.5 50 Z " /><path fill="rgb(35,35,35)" stroke="rgb(35,35,35)" stroke-width="1" opacity="0.4196078431372549" d="M 178.5 50 L 180 50.5 L 177 52.5 L 176.5 54 L 176 52.5 L 178.5 50 Z " /><path fill="rgb(35,35,35)" stroke="rgb(35,35,35)" stroke-width="1" opacity="0.4196078431372549" d="M 181.5 50 Q 184.5 50.5 184 54.5 L 183 54.5 L 181.5 50 Z " /><path fill="rgb(35,35,35)" stroke="rgb(35,35,35)" stroke-width="1" opacity="0.4196078431372549" d="M 189.5 50 L 190 55.5 L 189 55.5 L 189.5 50 Z " /><path fill="rgb(35,35,35)" stroke="rgb(35,35,35)" stroke-width="1" opacity="0.4196078431372549" d="M 201.5 50 L 199.5 53 L 201.5 50 Z " /><path fill="rgb(35,35,35)" stroke="rgb(35,35,35)" stroke-width="1" opacity="0.4196078431372549" d="M 204.5 50 L 205.5 52 L 204.5 50 Z " /><path fill="rgb(35,35,35)" stroke="rgb(35,35,35)" stroke-width="1" opacity="0.4196078431372549" d="M 222.5 50 L 224 50.5 L 221 52.5 L 220.5 54 L 220 52.5 L 222.5 50 Z " /><path fill="rgb(35,35,35)" stroke="rgb(35,35,35)" stroke-width="1" opacity="0.4196078431372549" d="M 225.5 50 L 228 51.5 L 227.5 53 L 227 51 L 225.5 50 Z " /><path fill="rgb(35,35,35)" stroke="rgb(35,35,35)" stroke-width="1" opacity="0.4196078431372549" d="M 244.5 50 L 245 52.5 L 244 52.5 L 244.5 50 Z " /><path fill="rgb(35,35,35)" stroke="rgb(35,35,35)" stroke-width="1" opacity="0.4196078431372549" d="M 279.5 50 L 277.5 53 L 279.5 50 Z " /><path fill="rgb(35,35,35)" stroke="rgb(35,35,35)" stroke-width="1" opacity="0.4196078431372549" d="M 282.5 50 L 283.5 52 L 282.5 50 Z " /><path fill="rgb(35,35,35)" stroke="rgb(35,35,35)" stroke-width="1" opacity="0.4196078431372549" d="M 300.5 50 L 302 50.5 L 299 52.5 L 298.5 54 L 298 52.5 L 300.5 50 Z " /><path fill="rgb(35,35,35)" stroke="rgb(35,35,35)" stroke-width="1" opacity="0.4196078431372549" d="M 303.5 50 L 306 51.5 L 305.5 53 L 305 51 L 303.5 50 Z " /><path fill="rgb(35,35,35)" stroke="rgb(35,35,35)" stroke-width="1" opacity="0.4196078431372549" d="M 324.5 50 L 322.5 53 L 324.5 50 Z " /><path fill="rgb(35,35,35)" stroke="rgb(35,35,35)" stroke-width="1" opacity="0.4196078431372549" d="M 327.5 50 L 328.5 52 L 327.5 50 Z " /><path fill="rgb(35,35,35)" stroke="rgb(35,35,35)" stroke-width="1" opacity="0.4196078431372549" d="M 345.5 50 L 347 50.5 L 344 52.5 L 343.5 54 L 343 52.5 L 345.5 50 Z " /><path fill="rgb(35,35,35)" stroke="rgb(35,35,35)" stroke-width="1" opacity="0.4196078431372549" d="M 348.5 50 L 351 51.5 L 350.5 53 L 350 51 L 348.5 50 Z " /><path fill="rgb(35,35,35)" stroke="rgb(35,35,35)" stroke-width="1" opacity="0.4196078431372549" d="M 367.5 50 L 369 50.5 L 367 51 L 366.5 53 L 366 51.5 L 367.5 50 Z " /><path fill="rgb(35,35,35)" stroke="rgb(35,35,35)" stroke-width="1" opacity="0.4196078431372549" d="M 371.5 50 Q 373.8 49.3 373 51.5 L 371.5 50 Z " /><path fill="rgb(35,35,35)" stroke="rgb(35,35,35)" stroke-width="1" opacity="0.4196078431372549" d="M 73.5 51 L 74.5 53 L 73.5 51 Z " /><path fill="rgb(35,35,35)" stroke="rgb(35,35,35)" stroke-width="1" opacity="0.4196078431372549" d="M 111.5 51 L 112.5 53 L 111.5 51 Z " /><path fill="rgb(35,35,35)" stroke="rgb(35,35,35)" stroke-width="1" opacity="0.4196078431372549" d="M 123.5 51 L 127 55.5 L 126 55.5 L 123.5 51 Z " /><path fill="rgb(35,35,35)" stroke="rgb(35,35,35)" stroke-width="1" opacity="0.4196078431372549" d="M 250.5 51 Q 249.6 56.4 252.5 58 L 254 58.5 L 252.5 59 Q 248.3 57.3 250.5 51 Z " /><path fill="rgb(35,35,35)" stroke="rgb(35,35,35)" stroke-width="1" opacity="0.4196078431372549" d="M 17.5 52 L 18.5 54 L 17.5 52 Z " /><path fill="rgb(35,35,35)" stroke="rgb(35,35,35)" stroke-width="1" opacity="0.4196078431372549" d="M 26.5 52 L 27 53.5 Q 26.5 56.5 22.5 56 L 22.5 55 L 26 53.5 L 26.5 52 Z " /><path fill="rgb(35,35,35)" stroke="rgb(35,35,35)" stroke-width="1" opacity="0.4196078431372549" d="M 48.5 52 L 49 54.5 L 48 54.5 L 48.5 52 Z " /><path fill="rgb(35,35,35)" stroke="rgb(35,35,35)" stroke-width="1" opacity="0.4196078431372549" d="M 97.5 52 L 99 54.5 L 97.5 57 L 97 55.5 L 98 53.5 L 97.5 52 Z " /><path fill="rgb(35,35,35)" stroke="rgb(35,35,35)" stroke-width="1" opacity="0.4196078431372549" d="M 54.5 53 L 55 55.5 L 53.5 59 L 53 56.5 L 54.5 53 Z " /><path fill="rgb(35,35,35)" stroke="rgb(35,35,35)" stroke-width="1" opacity="0.4196078431372549" d="M 382.5 53 L 388 56.5 L 386.5 57 L 382.5 53 Z " /><path fill="rgb(35,35,35)" stroke="rgb(35,35,35)" stroke-width="1" opacity="0.4196078431372549" d="M 75.5 54 L 77 56.5 L 76 56.5 L 75.5 54 Z " /><path fill="rgb(35,35,35)" stroke="rgb(35,35,35)" stroke-width="1" opacity="0.4196078431372549" d="M 116.5 54 L 119 55.5 L 117.5 55 L 116.5 54 Z " /><path fill="rgb(35,35,35)" stroke="rgb(35,35,35)" stroke-width="1" opacity="0.4196078431372549" d="M 129.5 54 L 130 58.5 L 129 58.5 L 129.5 54 Z " /><path fill="rgb(35,35,35)" stroke="rgb(35,35,35)" stroke-width="1" opacity="0.4196078431372549" d="M 148 54 Q 151.7 52.6 150 58.5 L 149 58.5 L 148 54 Z " /><path fill="rgb(35,35,35)" stroke="rgb(35,35,35)" stroke-width="1" opacity="0.4196078431372549" d="M 169.5 54 L 170 58.5 L 169 58.5 L 169.5 54 Z " /><path fill="rgb(35,35,35)" stroke="rgb(35,35,35)" stroke-width="1" opacity="0.4196078431372549" d="M 205.5 54 L 206 57.5 L 205 57.5 L 205.5 54 Z " /><path fill="rgb(35,35,35)" stroke="rgb(35,35,35)" stroke-width="1" opacity="0.4196078431372549" d="M 211.5 54 L 212 56.5 L 211 56.5 L 211.5 54 Z " /><path fill="rgb(35,35,35)" stroke="rgb(35,35,35)" stroke-width="1" opacity="0.4196078431372549" d="M 213.5 54 L 214 58.5 L 213 58.5 L 213.5 54 Z " /><path fill="rgb(35,35,35)" stroke="rgb(35,35,35)" stroke-width="1" opacity="0.4196078431372549" d="M 233.5 54 L 234 56.5 L 233 56.5 L 233.5 54 Z " /><path fill="rgb(35,35,35)" stroke="rgb(35,35,35)" stroke-width="1" opacity="0.4196078431372549" d="M 283.5 54 L 284 57.5 L 283 57.5 L 283.5 54 Z " /><path fill="rgb(35,35,35)" stroke="rgb(35,35,35)" stroke-width="1" opacity="0.4196078431372549" d="M 289.5 54 L 290 56.5 L 289 56.5 L 289.5 54 Z " /><path fill="rgb(35,35,35)" stroke="rgb(35,35,35)" stroke-width="1" opacity="0.4196078431372549" d="M 291.5 54 L 292 58.5 L 291 58.5 L 291.5 54 Z " /><path fill="rgb(35,35,35)" stroke="rgb(35,35,35)" stroke-width="1" opacity="0.4196078431372549" d="M 311.5 54 L 312 56.5 L 311 56.5 L 311.5 54 Z " /><path fill="rgb(35,35,35)" stroke="rgb(35,35,35)" stroke-width="1" opacity="0.4196078431372549" d="M 328.5 54 L 329 57.5 L 328 57.5 L 328.5 54 Z " /><path fill="rgb(35,35,35)" stroke="rgb(35,35,35)" stroke-width="1" opacity="0.4196078431372549" d="M 334.5 54 L 335 56.5 L 334 56.5 L 334.5 54 Z " /><path fill="rgb(35,35,35)" stroke="rgb(35,35,35)" stroke-width="1" opacity="0.4196078431372549" d="M 336.5 54 L 337 58.5 L 336 58.5 L 336.5 54 Z " /><path fill="rgb(35,35,35)" stroke="rgb(35,35,35)" stroke-width="1" opacity="0.4196078431372549" d="M 356.5 54 L 357 56.5 L 356 56.5 L 356.5 54 Z " /><path fill="rgb(35,35,35)" stroke="rgb(35,35,35)" stroke-width="1" opacity="0.4196078431372549" d="M 359.5 54 L 360 58.5 L 359 58.5 L 359.5 54 Z " /><path fill="rgb(35,35,35)" stroke="rgb(35,35,35)" stroke-width="1" opacity="0.4196078431372549" d="M 394.5 54 Q 398 55 397 60.5 L 392.5 64 L 392.5 63 L 396 60.5 Q 396.6 55 394.5 54 Z " /><path fill="rgb(35,35,35)" stroke="rgb(35,35,35)" stroke-width="1" opacity="0.4196078431372549" d="M 192.5 55 L 193 58.5 L 192 58.5 L 192.5 55 Z " /><path fill="rgb(35,35,35)" stroke="rgb(35,35,35)" stroke-width="1" opacity="0.4196078431372549" d="M 198.5 55 L 199 57.5 L 198 57.5 L 198.5 55 Z " /><path fill="rgb(35,35,35)" stroke="rgb(35,35,35)" stroke-width="1" opacity="0.4196078431372549" d="M 219.5 55 L 222 58.5 L 220 59 L 219.5 55 Z " /><path fill="rgb(35,35,35)" stroke="rgb(35,35,35)" stroke-width="1" opacity="0.4196078431372549" d="M 270.5 55 L 271 58.5 L 270 58.5 L 270.5 55 Z " /><path fill="rgb(35,35,35)" stroke="rgb(35,35,35)" stroke-width="1" opacity="0.4196078431372549" d="M 276.5 55 L 277 57.5 L 276 57.5 L 276.5 55 Z " /><path fill="rgb(35,35,35)" stroke="rgb(35,35,35)" stroke-width="1" opacity="0.4196078431372549" d="M 297.5 55 L 300 58.5 L 298 59 L 297.5 55 Z " /><path fill="rgb(35,35,35)" stroke="rgb(35,35,35)" stroke-width="1" opacity="0.4196078431372549" d="M 315.5 55 L 316 58.5 L 315 58.5 L 315.5 55 Z " /><path fill="rgb(35,35,35)" stroke="rgb(35,35,35)" stroke-width="1" opacity="0.4196078431372549" d="M 321.5 55 L 322 57.5 L 321 57.5 L 321.5 55 Z " /><path fill="rgb(35,35,35)" stroke="rgb(35,35,35)" stroke-width="1" opacity="0.4196078431372549" d="M 342.5 55 L 345 58.5 L 343 59 L 342.5 55 Z " /><path fill="rgb(35,35,35)" stroke="rgb(35,35,35)" stroke-width="1" opacity="0.4196078431372549" d="M 47.5 56 L 48 57.5 L 46.5 60 L 46 58.5 L 47.5 56 Z " /><path fill="rgb(35,35,35)" stroke="rgb(35,35,35)" stroke-width="1" opacity="0.4196078431372549" d="M 69.5 56 L 70.5 58 L 69.5 56 Z " /><path fill="rgb(35,35,35)" stroke="rgb(35,35,35)" stroke-width="1" opacity="0.4196078431372549" d="M 107.5 56 L 108 58.5 L 107 58.5 L 107.5 56 Z " /><path fill="rgb(35,35,35)" stroke="rgb(35,35,35)" stroke-width="1" opacity="0.4196078431372549" d="M 120.5 56 L 121 58.5 Q 120.3 60.8 116.5 60 L 115 57.5 L 116 57.5 L 116 59 L 120 59 L 120.5 56 Z " /><path fill="rgb(35,35,35)" stroke="rgb(35,35,35)" stroke-width="1" opacity="0.4196078431372549" d="M 244.5 56 L 248 62.5 L 245 60.5 L 244.5 56 Z " /><path fill="rgb(35,35,35)" stroke="rgb(35,35,35)" stroke-width="1" opacity="0.4196078431372549" d="M 259.5 56 L 257.5 59 L 256 58.5 L 259.5 56 Z " /><path fill="rgb(35,35,35)" stroke="rgb(35,35,35)" stroke-width="1" opacity="0.4196078431372549" d="M 266.5 56 L 267 57.5 Q 264.6 62.6 258.5 64 L 258.5 63 L 266 57.5 L 266.5 56 Z " /><path fill="rgb(35,35,35)" stroke="rgb(35,35,35)" stroke-width="1" opacity="0.4196078431372549" d="M 5.5 57 Q 7.2 64.8 13 68.5 L 8 64.5 Q 3.8 61.9 5.5 57 Z " /><path fill="rgb(35,35,35)" stroke="rgb(35,35,35)" stroke-width="1" opacity="0.4196078431372549" d="M 141.5 57 Q 148.5 55.5 148 58.5 L 144.5 63 L 141.5 64 L 141.5 63 L 146 60.5 L 147 58.5 L 141.5 58 L 137.5 60 L 137.5 59 L 141.5 57 Z " /><path fill="rgb(35,35,35)" stroke="rgb(35,35,35)" stroke-width="1" opacity="0.4196078431372549" d="M 161.5 57 L 160.5 59 L 161.5 57 Z " /><path fill="rgb(35,35,35)" stroke="rgb(35,35,35)" stroke-width="1" opacity="0.4196078431372549" d="M 167.5 57 L 168 58.5 L 166 59.5 L 167.5 57 Z " /><path fill="rgb(35,35,35)" stroke="rgb(35,35,35)" stroke-width="1" opacity="0.4196078431372549" d="M 188.5 57 L 189 58.5 L 184 62.5 L 188.5 57 Z " /><path fill="rgb(35,35,35)" stroke="rgb(35,35,35)" stroke-width="1" opacity="0.4196078431372549" d="M 226.5 57 L 225.5 59 L 224 58.5 L 226.5 57 Z " /><path fill="rgb(35,35,35)" stroke="rgb(35,35,35)" stroke-width="1" opacity="0.4196078431372549" d="M 304.5 57 L 303.5 59 L 302 58.5 L 304.5 57 Z " /><path fill="rgb(35,35,35)" stroke="rgb(35,35,35)" stroke-width="1" opacity="0.4196078431372549" d="M 349.5 57 L 348.5 59 L 347 58.5 L 349.5 57 Z " /><path fill="rgb(35,35,35)" stroke="rgb(35,35,35)" stroke-width="1" opacity="0.4196078431372549" d="M 371.5 57 Q 378.5 55.5 378 58.5 L 374.5 63 L 371.5 64 L 371.5 63 L 376 60.5 L 377 58.5 L 371.5 58 L 367.5 60 L 367.5 59 L 371.5 57 Z " /><path fill="rgb(35,35,35)" stroke="rgb(35,35,35)" stroke-width="1" opacity="0.4196078431372549" d="M 33.5 58 Q 36.5 58.5 36 62.5 L 35 62.5 L 33.5 58 Z " /><path fill="rgb(35,35,35)" stroke="rgb(35,35,35)" stroke-width="1" opacity="0.4196078431372549" d="M 77.5 58 L 78 63.5 L 77 63.5 L 77.5 58 Z " /><path fill="rgb(35,35,35)" stroke="rgb(35,35,35)" stroke-width="1" opacity="0.4196078431372549" d="M 380.5 58 L 383.5 63 L 385 63.5 L 383.5 64 L 381 63 L 380.5 58 Z " /><path fill="rgb(35,35,35)" stroke="rgb(35,35,35)" stroke-width="1" opacity="0.4196078431372549" d="M 12.5 59 L 13.5 61 L 12.5 59 Z " /><path fill="rgb(35,35,35)" stroke="rgb(35,35,35)" stroke-width="1" opacity="0.4196078431372549" d="M 26.5 59 L 25.5 61 L 26.5 59 Z " /><path fill="rgb(35,35,35)" stroke="rgb(35,35,35)" stroke-width="1" opacity="0.4196078431372549" d="M 71.5 59 L 72 62.5 L 71 62.5 L 71.5 59 Z " /><path fill="rgb(35,35,35)" stroke="rgb(35,35,35)" stroke-width="1" opacity="0.4196078431372549" d="M 100.5 59 L 99.5 61 L 100.5 59 Z " /><path fill="rgb(35,35,35)" stroke="rgb(35,35,35)" stroke-width="1" opacity="0.4196078431372549" d="M 109.5 59 L 112.5 63 L 114 63.5 L 112.5 64 L 109 60.5 L 109.5 59 Z " /><path fill="rgb(35,35,35)" stroke="rgb(35,35,35)" stroke-width="1" opacity="0.4196078431372549" d="M 210.5 59 L 211 62.5 L 210 62.5 L 210.5 59 Z " /><path fill="rgb(35,35,35)" stroke="rgb(35,35,35)" stroke-width="1" opacity="0.4196078431372549" d="M 232.5 59 L 233 62.5 L 232 62.5 L 232.5 59 Z " /><path fill="rgb(35,35,35)" stroke="rgb(35,35,35)" stroke-width="1" opacity="0.4196078431372549" d="M 288.5 59 L 289 62.5 L 288 62.5 L 288.5 59 Z " /><path fill="rgb(35,35,35)" stroke="rgb(35,35,35)" stroke-width="1" opacity="0.4196078431372549" d="M 310.5 59 L 311 62.5 L 310 62.5 L 310.5 59 Z " /><path fill="rgb(35,35,35)" stroke="rgb(35,35,35)" stroke-width="1" opacity="0.4196078431372549" d="M 333.5 59 L 334 62.5 L 333 62.5 L 333.5 59 Z " /><path fill="rgb(35,35,35)" stroke="rgb(35,35,35)" stroke-width="1" opacity="0.4196078431372549" d="M 355.5 59 L 356 62.5 L 355 62.5 L 355.5 59 Z " /><path fill="rgb(35,35,35)" stroke="rgb(35,35,35)" stroke-width="1" opacity="0.4196078431372549" d="M 106.5 60 L 107 61.5 L 105 62.5 L 106.5 60 Z " /><path fill="rgb(35,35,35)" stroke="rgb(35,35,35)" stroke-width="1" opacity="0.4196078431372549" d="M 130.5 60 L 132 62.5 L 130 61.5 L 130.5 60 Z " /><path fill="rgb(35,35,35)" stroke="rgb(35,35,35)" stroke-width="1" opacity="0.4196078431372549" d="M 150.5 60 L 152 62.5 L 150 61.5 L 150.5 60 Z " /><path fill="rgb(35,35,35)" stroke="rgb(35,35,35)" stroke-width="1" opacity="0.4196078431372549" d="M 170.5 60 L 175 63.5 L 173.5 64 L 170.5 60 Z " /><path fill="rgb(35,35,35)" stroke="rgb(35,35,35)" stroke-width="1" opacity="0.4196078431372549" d="M 197.5 60 L 198 63.5 L 197 63.5 L 197.5 60 Z " /><path fill="rgb(35,35,35)" stroke="rgb(35,35,35)" stroke-width="1" opacity="0.4196078431372549" d="M 204.5 60 L 205 62.5 L 204 62.5 L 204.5 60 Z " /><path fill="rgb(35,35,35)" stroke="rgb(35,35,35)" stroke-width="1" opacity="0.4196078431372549" d="M 214.5 60 L 216.5 63 L 218 63.5 L 216.5 64 Q 212.9 62.9 214.5 60 Z " /><path fill="rgb(35,35,35)" stroke="rgb(35,35,35)" stroke-width="1" opacity="0.4196078431372549" d="M 275.5 60 L 276 63.5 L 275 63.5 L 275.5 60 Z " /><path fill="rgb(35,35,35)" stroke="rgb(35,35,35)" stroke-width="1" opacity="0.4196078431372549" d="M 282.5 60 L 283 62.5 L 282 62.5 L 282.5 60 Z " /><path fill="rgb(35,35,35)" stroke="rgb(35,35,35)" stroke-width="1" opacity="0.4196078431372549" d="M 292.5 60 L 294.5 63 L 296 63.5 L 294.5 64 Q 290.9 62.9 292.5 60 Z " /><path fill="rgb(35,35,35)" stroke="rgb(35,35,35)" stroke-width="1" opacity="0.4196078431372549" d="M 320.5 60 L 321 63.5 L 320 63.5 L 320.5 60 Z " /><path fill="rgb(35,35,35)" stroke="rgb(35,35,35)" stroke-width="1" opacity="0.4196078431372549" d="M 327.5 60 L 328 62.5 L 327 62.5 L 327.5 60 Z " /><path fill="rgb(35,35,35)" stroke="rgb(35,35,35)" stroke-width="1" opacity="0.4196078431372549" d="M 337.5 60 L 339.5 63 L 341 63.5 L 339.5 64 Q 335.9 62.9 337.5 60 Z " /><path fill="rgb(35,35,35)" stroke="rgb(35,35,35)" stroke-width="1" opacity="0.4196078431372549" d="M 360.5 60 L 362 62.5 L 360 61.5 L 360.5 60 Z " /><path fill="rgb(35,35,35)" stroke="rgb(35,35,35)" stroke-width="1" opacity="0.4196078431372549" d="M 45.5 61 L 45 62.5 L 42.5 66 L 44 63.5 L 45.5 61 Z " /><path fill="rgb(35,35,35)" stroke="rgb(35,35,35)" stroke-width="1" opacity="0.4196078431372549" d="M 125.5 61 L 124.5 63 L 125.5 61 Z " /><path fill="rgb(35,35,35)" stroke="rgb(35,35,35)" stroke-width="1" opacity="0.4196078431372549" d="M 191.5 61 L 192 63.5 L 191 63.5 L 191.5 61 Z " /><path fill="rgb(35,35,35)" stroke="rgb(35,35,35)" stroke-width="1" opacity="0.4196078431372549" d="M 269.5 61 L 270 63.5 L 269 63.5 L 269.5 61 Z " /><path fill="rgb(35,35,35)" stroke="rgb(35,35,35)" stroke-width="1" opacity="0.4196078431372549" d="M 314.5 61 L 315 63.5 L 314 63.5 L 314.5 61 Z " /><path fill="rgb(35,35,35)" stroke="rgb(35,35,35)" stroke-width="1" opacity="0.4196078431372549" d="M 51.5 62 L 52 63.5 L 50 64.5 L 51.5 62 Z " /><path fill="rgb(35,35,35)" stroke="rgb(35,35,35)" stroke-width="1" opacity="0.4196078431372549" d="M 97.5 62 L 95.5 65 L 94 64.5 L 97.5 62 Z " /><path fill="rgb(35,35,35)" stroke="rgb(35,35,35)" stroke-width="1" opacity="0.4196078431372549" d="M 163.5 62 L 162.5 64 L 161 63.5 L 163.5 62 Z " /><path fill="rgb(35,35,35)" stroke="rgb(35,35,35)" stroke-width="1" opacity="0.4196078431372549" d="M 225.5 62 L 227 62.5 L 223.5 64 L 223.5 63 L 225.5 62 Z " /><path fill="rgb(35,35,35)" stroke="rgb(35,35,35)" stroke-width="1" opacity="0.4196078431372549" d="M 303.5 62 L 305 62.5 L 301.5 64 L 301.5 63 L 303.5 62 Z " /><path fill="rgb(35,35,35)" stroke="rgb(35,35,35)" stroke-width="1" opacity="0.4196078431372549" d="M 348.5 62 L 350 62.5 L 346.5 64 L 346.5 63 L 348.5 62 Z " /><path fill="rgb(35,35,35)" stroke="rgb(35,35,35)" stroke-width="1" opacity="0.4196078431372549" d="M 16.5 63 L 20 65.5 L 18.5 66 L 16.5 63 Z " /><path fill="rgb(35,35,35)" stroke="rgb(35,35,35)" stroke-width="1" opacity="0.4196078431372549" d="M 25.5 63 Q 26.3 68.3 30 70.5 L 26 67.5 L 25.5 63 Z " /><path fill="rgb(35,35,35)" stroke="rgb(35,35,35)" stroke-width="1" opacity="0.4196078431372549" d="M 55.5 63 Q 59.5 62.5 60 65.5 L 57.5 64 L 54 65.5 Q 53.5 70 57 70.5 L 53 67.5 Q 52.5 63.5 55.5 63 Z " /><path fill="rgb(35,35,35)" stroke="rgb(35,35,35)" stroke-width="1" opacity="0.4196078431372549" d="M 70.5 64 L 69.5 66 L 70.5 64 Z " /><path fill="rgb(35,35,35)" stroke="rgb(35,35,35)" stroke-width="1" opacity="0.4196078431372549" d="M 104.5 64 L 101.5 68 L 104.5 64 Z " /><path fill="rgb(35,35,35)" stroke="rgb(35,35,35)" stroke-width="1" opacity="0.4196078431372549" d="M 115.5 64 L 120 64.5 L 115.5 65 L 115.5 64 Z " /><path fill="rgb(35,35,35)" stroke="rgb(35,35,35)" stroke-width="1" opacity="0.4196078431372549" d="M 135.5 64 L 140 64.5 L 135.5 65 L 135.5 64 Z " /><path fill="rgb(35,35,35)" stroke="rgb(35,35,35)" stroke-width="1" opacity="0.4196078431372549" d="M 155.5 64 L 160 64.5 L 155.5 65 L 155.5 64 Z " /><path fill="rgb(35,35,35)" stroke="rgb(35,35,35)" stroke-width="1" opacity="0.4196078431372549" d="M 176.5 64 L 180 64.5 L 176.5 65 L 176.5 64 Z " /><path fill="rgb(35,35,35)" stroke="rgb(35,35,35)" stroke-width="1" opacity="0.4196078431372549" d="M 219.5 64 L 222 64.5 L 219.5 65 L 219.5 64 Z " /><path fill="rgb(35,35,35)" stroke="rgb(35,35,35)" stroke-width="1" opacity="0.4196078431372549" d="M 253.5 64 L 256 64.5 L 253.5 65 L 253.5 64 Z " /><path fill="rgb(35,35,35)" stroke="rgb(35,35,35)" stroke-width="1" opacity="0.4196078431372549" d="M 297.5 64 L 300 64.5 L 297.5 65 L 297.5 64 Z " /><path fill="rgb(35,35,35)" stroke="rgb(35,35,35)" stroke-width="1" opacity="0.4196078431372549" d="M 342.5 64 L 345 64.5 L 342.5 65 L 342.5 64 Z " /><path fill="rgb(35,35,35)" stroke="rgb(35,35,35)" stroke-width="1" opacity="0.4196078431372549" d="M 365.5 64 L 370 64.5 L 365.5 65 L 365.5 64 Z " /><path fill="rgb(35,35,35)" stroke="rgb(35,35,35)" stroke-width="1" opacity="0.4196078431372549" d="M 386.5 64 L 391 64.5 L 386.5 65 L 386.5 64 Z " /><path fill="rgb(35,35,35)" stroke="rgb(35,35,35)" stroke-width="1" opacity="0.4196078431372549" d="M 76.5 65 L 77 66.5 L 75 70 L 72.5 71 L 76 66.5 L 76.5 65 Z " /><path fill="rgb(35,35,35)" stroke="rgb(35,35,35)" stroke-width="1" opacity="0.4196078431372549" d="M 38.5 66 L 41 66.5 L 38.5 67 L 38.5 66 Z " /><path fill="rgb(35,35,35)" stroke="rgb(35,35,35)" stroke-width="1" opacity="0.4196078431372549" d="M 49.5 66 L 49 67.5 Q 49.8 69.8 47.5 69 L 45 70.5 L 49.5 66 Z " /><path fill="rgb(35,35,35)" stroke="rgb(35,35,35)" stroke-width="1" opacity="0.4196078431372549" d="M 84.5 66 L 90 66.5 L 84.5 67 L 84.5 66 Z " /><path fill="rgb(35,35,35)" stroke="rgb(35,35,35)" stroke-width="1" opacity="0.4196078431372549" d="M 335.5 66 L 336 68.5 L 335 68.5 L 335.5 66 Z " /><path fill="rgb(35,35,35)" stroke="rgb(35,35,35)" stroke-width="1" opacity="0.4196078431372549" d="M 341.5 66 L 342.5 68 L 341.5 66 Z " /><path fill="rgb(35,35,35)" stroke="rgb(35,35,35)" stroke-width="1" opacity="0.4196078431372549" d="M 99.5 68 L 98.5 70 L 92.5 72 L 92.5 71 L 99.5 68 Z " /><path fill="rgb(35,35,35)" stroke="rgb(35,35,35)" stroke-width="1" opacity="0.4196078431372549" d="M 353.5 68 L 350.5 72 L 353.5 68 Z " /><path fill="rgb(35,35,35)" stroke="rgb(35,35,35)" stroke-width="1" opacity="0.4196078431372549" d="M 14.5 69 L 15.5 71 L 14.5 69 Z " /><path fill="rgb(35,35,35)" stroke="rgb(35,35,35)" stroke-width="1" opacity="0.4196078431372549" d="M 25.5 70 L 23.5 73 L 20 72.5 Q 24.3 72.8 25.5 70 Z " /><path fill="rgb(35,35,35)" stroke="rgb(35,35,35)" stroke-width="1" opacity="0.4196078431372549" d="M 336.5 70 L 337.5 72 L 336.5 70 Z " /><path fill="rgb(35,35,35)" stroke="rgb(35,35,35)" stroke-width="1" opacity="0.4196078431372549" d="M 82.5 71 L 90 72.5 L 83.5 73 L 82.5 71 Z " /><path fill="rgb(35,35,35)" stroke="rgb(35,35,35)" stroke-width="1" opacity="0.4196078431372549" d="M 33.5 72 L 42 72.5 L 33.5 73 L 33.5 72 Z " /><path fill="rgb(35,35,35)" stroke="rgb(35,35,35)" stroke-width="1" opacity="0.4196078431372549" d="M 60.5 72 L 64 72.5 L 60.5 73 L 60.5 72 Z " /><path fill="rgb(35,35,35)" stroke="rgb(35,35,35)" stroke-width="1" opacity="0.4196078431372549" d="M 66.5 72 L 69 72.5 L 66.5 73 L 66.5 72 Z " /><path fill="rgb(35,35,35)" stroke="rgb(35,35,35)" stroke-width="1" opacity="0.4196078431372549" d="M 342.5 73 L 345 73.5 L 342.5 74 L 342.5 73 Z " /></svg>